<svg version="1.1" id="Layer_1" xmlns="http://www.w3.org/2000/svg" xmlns:xlink="http://www.w3.org/1999/xlink" x="0px" y="0px"
	 width="100%" viewBox="0 0 1080 1080" enable-background="new 0 0 1080 1080" xml:space="preserve">
<path fill="#000000" opacity="1.000000" stroke="none" 
	d="
M1.000010,586.000000 
	C1.000000,391.018646 1.000000,196.037292 1.000000,1.027965 
	C360.946930,1.027965 720.893860,1.027965 1080.920410,1.027965 
	C1080.920410,360.912506 1080.920410,720.825012 1080.920410,1080.868774 
	C721.121948,1080.868774 361.243805,1080.868774 1.000000,1080.868774 
	C1.000000,922.304138 1.000000,763.608032 1.292903,604.166504 
	C4.779125,608.252991 9.291729,610.774902 14.939816,612.090332 
	C24.684965,614.359924 34.088154,612.163269 43.606800,610.866699 
	C44.742283,610.712036 46.335598,611.015625 47.133423,611.744934 
	C53.383556,617.458435 58.993233,623.996948 65.740173,629.018311 
	C83.089104,641.930054 102.620644,649.465637 124.485062,649.966064 
	C133.527634,650.173035 142.578903,650.000366 151.893600,650.000366 
	C152.818008,653.289734 153.854980,657.311646 155.085510,661.273499 
	C156.595795,666.136047 160.624893,666.517456 164.656876,665.902832 
	C168.326996,665.343323 170.448212,662.739380 169.933243,658.952332 
	C169.285706,654.190491 168.151672,649.494751 167.166092,644.456238 
	C167.472534,644.312561 168.003799,644.028870 168.559937,643.807861 
	C186.314423,636.751343 201.993423,626.794006 214.018478,611.612793 
	C214.598572,610.880493 216.387238,610.809631 217.575928,610.903076 
	C225.561981,611.530884 233.526596,612.652344 241.520355,612.901184 
	C250.053741,613.166809 256.823486,608.290161 259.143433,601.415161 
	C261.734100,593.737732 259.359924,586.886658 255.078735,580.823181 
	C253.504120,578.593018 249.807098,576.783264 247.040222,576.729309 
	C243.035065,576.651367 240.511230,579.937256 241.117889,584.056702 
	C241.706085,588.050842 243.262680,591.902344 244.400070,595.837585 
	C243.570190,596.165833 242.511551,596.964050 241.482056,596.928101 
	C236.130295,596.741211 230.785950,596.341736 225.279190,596.006592 
	C233.452026,582.650208 239.986649,559.426819 239.982910,543.600342 
	C239.979874,530.681458 238.535797,517.927673 233.896210,505.794098 
	C232.627289,502.475616 233.807907,500.927124 235.740860,498.610779 
	C241.402527,491.826019 247.220551,485.034668 249.409485,476.119690 
	C251.133392,469.098602 251.375793,462.447815 244.876160,457.318146 
	C239.757019,453.277985 233.569443,452.009613 227.583450,452.232056 
	C220.106018,452.509918 217.944595,459.032928 220.155090,464.123901 
	C221.972366,468.309326 226.015381,469.305603 230.535980,469.075897 
	C235.200073,468.838867 236.273621,470.806122 233.718079,474.614777 
	C231.130814,478.470612 228.232101,482.117493 225.446579,485.887329 
	C196.462616,437.794342 147.224380,425.868958 110.188309,432.605652 
	C109.800209,431.450592 109.330925,430.279358 109.013504,429.068329 
	C107.915428,424.878876 107.136803,420.583588 105.728951,416.503754 
	C104.355461,412.523407 100.683189,410.528259 96.930595,411.239044 
	C93.474922,411.893524 90.214439,414.357361 91.025925,418.940094 
	C92.077690,424.879761 93.317955,430.786011 94.456497,436.601562 
	C69.135048,446.049622 49.058952,461.970856 35.279495,486.117371 
	C33.356140,483.411774 31.439760,480.822815 29.635475,478.157928 
	C24.070429,469.938629 24.199818,469.734741 33.570374,468.971924 
	C37.252411,468.672180 40.252312,466.937286 40.936161,463.071594 
	C41.938145,457.407654 40.370884,454.134674 35.674191,453.152008 
	C32.187782,452.422546 28.377827,452.614349 24.798332,453.071686 
	C13.871753,454.467651 8.531425,464.866211 10.718717,473.755219 
	C13.248252,484.035126 19.512032,491.542511 25.758198,499.346985 
	C26.586639,500.382111 27.413343,502.018524 27.202736,503.189819 
	C25.607264,512.062988 23.699896,520.879456 21.991383,529.733154 
	C19.390303,543.212158 21.272850,556.468140 24.968906,569.399841 
	C27.534472,578.376160 31.286285,587.013428 34.539787,595.888611 
	C28.429895,595.768066 22.084492,599.099976 15.786900,595.520142 
	C16.820442,593.372681 17.570107,591.772583 18.355804,590.190308 
	C21.060057,584.744202 19.850780,579.125122 15.312244,577.121948 
	C10.328399,574.921997 6.374938,577.635803 3.942010,582.861816 
	C3.367070,584.096741 2.001756,584.963745 1.000010,586.000000 
M696.682373,535.636963 
	C696.418823,537.313660 696.155212,538.990356 695.868408,540.814758 
	C699.246277,540.814758 702.013611,540.814758 704.223511,540.814758 
	C705.064636,538.607910 705.770813,536.755066 706.476990,534.902161 
	C706.975647,535.111938 707.474304,535.321655 707.972961,535.531433 
	C707.525635,538.839722 707.223083,541.806458 703.109985,543.539246 
	C695.760254,546.635620 691.145935,552.303467 691.117004,560.626709 
	C691.108826,562.979736 691.863037,566.522339 693.438599,567.388000 
	C695.329102,568.426575 698.472290,567.185120 700.079102,567.028076 
	C703.697937,567.536682 706.508179,567.931641 709.077515,568.292725 
	C709.596619,567.609192 709.888855,567.392456 709.945251,567.125854 
	C711.976318,557.526184 714.208496,547.959717 715.851013,538.293213 
	C716.298889,535.657837 715.823608,532.055054 714.276428,530.050720 
	C710.415161,525.048218 702.411682,526.649658 698.862854,532.503052 
	C698.221741,533.560425 696.879700,534.192810 695.988403,534.195618 
	C696.352600,531.870117 696.716797,529.544617 697.103943,527.072449 
	C693.597351,526.903870 691.672119,531.825623 688.023865,528.565186 
	C684.510986,525.425720 681.051147,526.751709 677.838867,529.443481 
	C669.762512,536.211243 670.342590,545.582031 670.299316,554.729980 
	C670.297363,555.140503 671.569092,555.557068 672.545410,556.152344 
	C666.473145,558.760986 665.200012,562.253723 667.597961,567.768127 
	C661.349426,572.095703 660.738159,577.779541 666.579407,580.017883 
	C672.013184,582.100159 680.624756,581.844849 685.059387,577.483398 
	C691.297668,571.348145 690.005432,564.687988 681.842224,561.950012 
	C679.948853,561.314941 678.142700,560.420166 675.892273,559.475220 
	C685.168701,557.143372 688.689392,554.942871 690.107727,544.533203 
	C690.624573,540.740295 690.140320,535.727356 696.682373,535.636963 
M290.992218,414.962799 
	C290.994812,441.673981 290.980347,468.385223 291.040802,495.096283 
	C291.044556,496.764282 291.635406,498.431000 292.007538,500.972290 
	C298.889374,501.476410 305.771240,501.980530 313.072937,502.515411 
	C313.072937,472.484680 313.072937,443.420288 313.072937,413.963074 
	C323.512634,413.963074 333.586792,413.963074 343.791809,413.963074 
	C343.791809,408.159912 343.791809,402.754486 343.791809,396.998840 
	C317.645325,396.998840 291.701294,396.998840 265.757263,396.998932 
	C264.924377,396.998932 264.046753,396.833252 263.269623,397.041779 
	C262.228668,397.321014 260.403992,397.886047 260.401703,398.335846 
	C260.377899,403.066071 260.525818,407.810242 260.995758,412.513702 
	C261.056030,413.116669 263.210815,413.917267 264.405640,413.935089 
	C273.232178,414.066986 282.061371,414.023438 290.992218,414.962799 
M636.359741,500.756805 
	C642.450256,501.337341 648.540710,501.917908 655.000916,502.533691 
	C655.000916,485.081177 654.963440,468.623230 655.058044,452.166016 
	C655.067688,450.490967 655.337402,447.965942 656.401978,447.300873 
	C660.299072,444.866455 664.398926,442.383606 668.769714,441.176971 
	C673.964355,439.742950 679.361694,443.387512 680.739014,448.514771 
	C681.531433,451.464935 681.914246,454.606232 681.942871,457.666565 
	C682.068909,471.160034 681.991821,484.655304 682.012085,498.149902 
	C682.013977,499.406250 682.182434,500.662323 682.254272,501.652588 
	C688.735535,501.652588 694.814087,501.652588 700.000000,501.652588 
	C700.000000,482.273376 700.533325,463.201843 699.792908,444.179840 
	C699.372864,433.389832 685.179138,422.979889 674.994629,425.127289 
	C668.123413,426.576050 661.500000,429.199890 654.703552,431.317505 
	C654.703552,419.624420 654.703552,406.877319 654.703552,393.998718 
	C649.189270,393.998718 644.031799,393.899109 638.885254,394.090118 
	C637.953796,394.124664 637.066711,395.351562 636.011292,396.951050 
	C636.007507,407.734924 635.979736,418.518890 636.005005,429.302704 
	C636.060120,452.854279 636.142212,476.405823 636.359741,500.756805 
M940.039368,434.456482 
	C936.884033,427.083710 920.992249,422.826508 910.933105,426.743011 
	C905.518799,428.851074 900.753601,432.626617 895.517761,435.756104 
	C892.969910,429.329437 886.926819,425.303741 879.220825,425.172272 
	C871.660828,425.043304 864.694641,427.882294 860.311096,432.985168 
	C858.489197,430.890778 857.044922,427.644348 855.054504,427.265259 
	C850.606445,426.418091 845.886047,427.000366 841.014343,427.000366 
	C841.014343,451.143311 841.043762,474.776978 840.976929,498.410370 
	C840.968628,501.345276 842.270691,502.157898 844.943176,502.060394 
	C848.604614,501.926758 852.293274,501.795746 855.935852,502.089691 
	C859.863403,502.406677 861.158569,501.085052 861.098389,497.044464 
	C860.875061,482.049194 861.000610,467.048645 861.004089,452.050079 
	C861.005676,445.268402 868.983093,439.392700 875.636353,441.258270 
	C880.878296,442.728119 883.944092,447.059631 883.980408,453.429138 
	C884.047852,465.260956 884.000244,477.093475 884.000488,488.925690 
	C884.000610,493.191345 884.000488,497.457001 884.000488,501.715454 
	C890.726135,501.715454 896.790466,501.715454 902.482910,501.715454 
	C903.003784,484.841888 903.402283,468.285645 904.081299,451.740906 
	C904.351196,445.164490 909.399719,440.558380 915.470825,441.047882 
	C921.637268,441.545105 926.254517,445.364990 926.093628,452.758179 
	C925.771118,467.583038 926.101440,482.421051 925.928162,497.250946 
	C925.884705,500.972351 927.048889,502.298920 930.790955,502.093689 
	C935.729858,501.822754 940.694885,502.027039 946.020386,502.027039 
	C946.020386,493.990784 946.021484,486.367432 946.020020,478.744080 
	C946.018188,468.911957 946.595032,459.030487 945.765991,449.268494 
	C945.352966,444.405212 942.363525,439.760712 940.039368,434.456482 
M555.159485,490.029846 
	C556.805542,491.363708 558.326477,492.902313 560.118408,493.997437 
	C570.216858,500.169037 580.684509,503.668152 593.052917,502.264587 
	C604.480774,500.967804 613.845154,497.093292 619.935059,487.422424 
	C628.241211,474.232178 629.302673,450.491058 607.668579,442.894348 
	C599.523071,440.034088 591.538879,436.658020 583.654724,433.129333 
	C578.257080,430.713531 577.609253,427.264343 578.750305,421.591370 
	C580.150330,414.630035 590.901245,411.584381 596.882751,413.492035 
	C601.558838,414.983398 606.053162,417.090210 610.535339,419.128021 
	C613.729370,420.580231 616.349304,420.581390 618.306641,417.281586 
	C619.287354,415.628113 620.156067,413.891907 621.284058,412.345184 
	C624.396973,408.076569 622.848633,405.556610 618.767700,402.873352 
	C609.323303,396.663300 599.060547,395.374329 588.083740,395.903351 
	C576.973694,396.438812 563.256104,404.289642 559.488892,416.825562 
	C555.333740,430.652100 560.119629,447.134613 575.694031,452.981232 
	C583.617371,455.955627 591.562927,458.873657 599.447266,461.948273 
	C603.872925,463.674194 605.060669,467.263763 605.089600,471.788940 
	C605.119507,476.473236 603.821045,479.784180 599.427246,482.198608 
	C590.123474,487.311127 581.758728,485.051178 573.449219,479.966675 
	C571.019104,478.479645 568.516968,476.643463 565.829102,476.144043 
	C560.602966,475.173004 554.476624,482.880402 555.159485,490.029846 
M501.261475,447.195892 
	C503.072571,445.824799 504.740051,444.185028 506.718781,443.127625 
	C517.048340,437.607483 526.624329,443.200623 526.118103,454.160126 
	C525.588501,465.624359 525.999512,477.132050 525.999451,488.620728 
	C525.999390,493.038544 525.999451,497.456329 525.999451,501.976013 
	C531.618042,501.976013 536.612549,501.774994 541.581726,502.043030 
	C545.209473,502.238708 546.109863,500.790955 546.075745,497.398041 
	C545.933228,483.247009 546.287292,469.086151 545.887024,454.945068 
	C545.739319,449.725739 544.543945,444.375610 542.894043,439.393890 
	C539.813721,430.093079 527.049438,423.578583 517.267883,425.974701 
	C511.509552,427.385254 505.859131,429.236267 499.866608,430.974335 
	C499.866608,419.183136 499.866608,406.648865 499.866608,394.319031 
	C492.958191,394.319031 486.552246,394.319031 480.267334,394.319031 
	C480.267334,430.353943 480.267334,466.067810 480.267334,501.976013 
	C485.514557,501.976013 490.496124,501.793365 495.456543,502.038422 
	C498.931549,502.210052 500.095764,501.070251 500.058777,497.517914 
	C499.902679,482.534576 499.992615,467.548370 500.057495,452.563507 
	C500.064331,450.985077 500.498657,449.408447 501.261475,447.195892 
M391.070557,481.000549 
	C386.735565,482.492523 382.356689,483.869080 378.073669,485.497681 
	C364.429352,490.685913 351.402588,482.972687 351.518982,466.998932 
	C363.657074,466.998932 375.798309,466.998962 387.939575,466.998962 
	C400.236298,466.998962 400.785583,466.957031 399.831940,454.458374 
	C399.030304,443.951752 394.602875,435.110352 384.498138,429.778534 
	C377.511169,426.091827 370.361481,425.329468 362.738190,425.968964 
	C350.748901,426.974701 341.686340,432.394196 335.977478,443.111786 
	C331.498535,451.520264 330.867035,460.452362 331.938385,469.770538 
	C333.178589,480.557190 337.049866,489.891571 346.326385,495.987457 
	C360.570312,505.347626 375.606781,504.506256 390.488647,497.768982 
	C401.203339,492.918274 401.475922,488.693573 392.370880,481.118134 
	C392.258331,481.024506 392.050629,481.045288 391.070557,481.000549 
M714.064697,494.192841 
	C717.882751,499.974915 723.945129,502.430756 730.195984,502.788086 
	C739.894470,503.342529 749.012939,500.626221 756.455261,493.529144 
	C758.486572,500.895691 760.278137,501.868896 768.896484,502.083221 
	C772.760254,502.179321 774.224487,501.167236 774.090820,497.071991 
	C773.566650,481.014252 773.461304,464.942963 772.951477,448.884613 
	C772.670044,440.017944 765.782898,429.851379 756.151367,426.891113 
	C749.384094,424.811188 742.739990,424.568848 735.931763,426.007935 
	C727.429382,427.805023 719.608887,430.877197 713.902832,437.772247 
	C718.137695,446.462311 720.747803,450.606049 732.593445,444.096893 
	C736.217896,442.105255 741.149170,440.594177 745.010925,441.331238 
	C752.799988,442.817780 755.332886,447.265411 753.558960,457.562744 
	C749.326355,458.044617 745.107910,458.391693 740.933167,459.026886 
	C731.109070,460.521667 721.548340,462.476074 714.616577,470.754913 
	C709.993286,476.276642 709.371399,487.633423 714.064697,494.192841 
M999.462891,426.927612 
	C983.887207,421.991974 970.908020,427.387146 958.675781,436.935211 
	C959.650330,439.081360 960.442017,441.005249 961.379883,442.855042 
	C963.784729,447.598236 968.621948,448.811523 973.377563,446.173035 
	C976.440674,444.473541 979.600281,442.841034 982.894775,441.687286 
	C990.272461,439.103699 999.490540,442.936493 999.008667,453.299774 
	C998.941406,454.745819 998.999390,456.197662 998.999390,457.999695 
	C996.790161,457.999695 994.977905,457.831757 993.205994,458.027893 
	C984.076782,459.038452 975.082031,460.332764 966.683228,464.640015 
	C959.491760,468.328125 955.382141,474.297882 955.306519,481.748047 
	C955.235901,488.704163 957.373840,496.066254 964.410278,499.673798 
	C972.855957,504.003876 981.799744,503.856995 990.473083,500.018555 
	C994.253296,498.345612 997.743408,496.016937 1001.384888,493.975037 
	C1003.325317,499.864258 1004.372070,503.055023 1017.000061,501.582153 
	C1017.000061,484.685150 1016.824463,467.740234 1017.068726,450.801361 
	C1017.205444,441.319427 1009.677002,429.441315 999.462891,426.927612 
M437.278442,485.791199 
	C432.955536,481.947449 428.904602,477.687378 428.151215,471.787933 
	C427.502655,466.709503 427.112518,461.266357 428.282043,456.385651 
	C429.339417,451.973022 431.774414,447.033234 435.170288,444.217407 
	C442.166473,438.416321 449.890900,440.626160 457.336670,444.641998 
	C459.188141,445.640564 462.828979,446.188782 463.927368,445.140961 
	C466.498596,442.688171 468.078308,439.171692 469.893677,435.991302 
	C470.060944,435.698303 469.180511,434.502228 468.548126,434.108795 
	C465.161865,432.002075 461.862366,429.640045 458.227875,428.074219 
	C452.097137,425.432983 445.635101,425.310272 438.947327,425.875824 
	C428.117188,426.791656 419.933014,431.585114 413.941589,440.479370 
	C407.861145,449.505829 407.033722,459.620575 408.035736,470.013214 
	C409.243713,482.542084 414.312347,492.889801 425.936615,498.974335 
	C432.689789,502.509125 439.858521,502.899261 447.477539,502.179443 
	C456.198029,501.355560 463.389893,498.172729 469.400116,492.046265 
	C470.217590,491.212982 471.101257,489.629333 470.848450,488.691132 
	C468.937927,481.601135 462.154205,479.216583 456.047668,483.489899 
	C450.418762,487.428986 444.445953,487.967255 437.278442,485.791199 
M807.998169,467.518982 
	C807.999146,464.355713 807.571350,461.121490 808.080688,458.042297 
	C809.668579,448.442566 816.240417,442.179932 825.955383,444.476166 
	C831.071106,445.685272 832.729675,444.601501 833.032593,439.603180 
	C833.119202,438.173492 833.924194,436.740570 833.814331,435.355560 
	C833.587585,432.496460 833.846252,427.966156 832.325928,427.180908 
	C829.121216,425.525726 824.862244,425.237885 821.103882,425.473297 
	C813.989014,425.918945 810.777771,432.321869 806.109009,436.470978 
	C805.718445,427.117737 805.072510,426.648804 795.053467,425.981873 
	C794.058960,425.915649 793.052429,426.029114 792.057922,425.962830 
	C789.131104,425.767853 787.933472,426.924591 787.946838,430.024628 
	C788.043945,452.667053 788.035645,475.310181 787.955200,497.952728 
	C787.944641,500.926575 788.872253,502.219757 791.973877,502.070679 
	C795.794312,501.887115 799.638611,501.871155 803.457214,502.073090 
	C806.899902,502.255096 808.144348,501.029114 808.068665,497.480988 
	C807.862854,487.828857 807.997986,478.169495 807.998169,467.518982 
M230.595734,437.926849 
	C231.080139,437.092712 231.498260,436.210846 232.058960,435.431610 
	C239.394424,425.237183 236.082306,406.597931 225.429947,399.481171 
	C218.523743,394.867157 211.590073,396.374084 204.572113,396.138489 
	C201.835571,396.046631 198.681015,396.924744 196.345245,398.373901 
	C186.482101,404.493195 182.112946,417.642456 185.584518,429.272400 
	C190.787369,446.702148 215.494308,454.479614 230.595734,437.926849 
M895.876587,521.665161 
	C893.689209,528.450806 893.689209,528.450806 886.192139,527.543518 
	C887.189087,525.805908 888.020935,522.822815 889.099487,522.730896 
	C895.044312,522.223633 892.096863,518.040283 893.059875,515.354736 
	C883.506836,514.524048 881.980713,515.624207 878.933167,524.156311 
	C878.280884,525.982605 876.586975,527.436829 875.372864,529.062500 
	C875.027161,528.846008 874.681458,528.629578 874.335754,528.413086 
	C873.884644,530.755554 873.433533,533.097961 872.982422,535.440430 
	C873.398682,535.375000 873.814880,535.309570 874.231140,535.244141 
	C874.716919,536.386108 875.789551,537.639404 875.597290,538.652649 
	C873.770386,548.279846 871.728821,557.866272 869.744873,567.484192 
	C877.998962,568.706421 878.675476,568.158447 880.019165,560.625549 
	C881.235229,553.807983 882.875366,547.060547 883.916626,540.219543 
	C884.488403,536.463257 886.532715,534.815491 889.802612,535.518616 
	C893.648010,536.345581 892.072021,539.605713 891.539673,541.918274 
	C889.816040,549.405945 887.836853,556.834473 886.040649,564.306091 
	C885.787720,565.358215 886.005676,566.523438 886.005676,567.809204 
	C889.172424,567.809204 891.928772,567.809204 894.120239,567.809204 
	C896.330505,558.266418 898.423218,549.027771 900.643799,539.819946 
	C901.074829,538.032471 900.528564,535.695984 903.747803,535.165649 
	C904.767456,534.997620 905.577087,531.690674 905.840698,529.733704 
	C905.943420,528.971375 904.275818,527.970520 903.199097,526.855164 
	C904.473328,525.516602 903.136902,521.205383 907.915344,522.080261 
	C908.190979,522.130737 909.290649,517.680237 910.021362,515.276794 
	C903.963806,514.432373 898.771423,514.558594 895.876587,521.665161 
M817.506287,538.970154 
	C816.004272,547.051453 814.363159,555.110474 813.069397,563.224976 
	C812.556213,566.443848 814.632019,568.605957 817.759888,567.874329 
	C822.122314,566.854004 826.361694,568.694885 830.813782,567.809021 
	C834.584412,550.289307 838.345703,532.812866 842.128540,515.236572 
	C838.703674,515.236572 835.936890,515.236572 833.663025,515.236572 
	C832.476990,520.028503 831.373291,524.487671 830.201599,529.221619 
	C825.377502,525.984985 822.010986,526.738525 819.973511,531.520996 
	C819.062500,533.659241 818.616089,535.995361 817.506287,538.970154 
M635.325745,514.999451 
	C630.687134,514.999451 626.048523,514.999451 621.095947,514.999451 
	C617.334473,532.689270 613.617737,550.169067 609.869141,567.798462 
	C616.553223,567.798462 622.662354,567.798462 628.982544,567.798462 
	C629.384521,564.844421 629.763062,562.063232 630.202576,558.833496 
	C626.618225,558.833496 623.849976,558.833496 620.265015,558.833496 
	C621.286255,555.538757 622.687927,552.834229 622.840759,550.060852 
	C623.028931,546.647278 624.431152,545.963867 627.458191,545.843872 
	C628.674011,545.795715 630.277039,544.235168 630.895813,542.968323 
	C631.899414,540.913513 632.237061,538.533447 632.878296,536.209473 
	C630.373291,536.021240 628.180298,535.856445 625.771423,535.675415 
	C626.057434,534.502686 626.348999,533.881714 626.337646,533.266357 
	C626.205688,526.143677 628.932007,522.355469 636.740723,523.783630 
	C637.234375,523.873901 638.811707,521.195068 638.858826,519.770569 
	C638.917542,517.993896 640.651489,514.621582 635.325745,514.999451 
M811.215332,527.013794 
	C808.017090,527.871216 804.981689,529.132202 801.432922,528.092896 
	C798.318420,527.180786 796.434814,528.526550 795.862732,532.162781 
	C795.069946,537.201904 793.522034,542.117859 792.427490,547.115112 
	C790.929749,553.953125 789.554138,560.817993 788.090637,567.841797 
	C791.103638,567.841797 793.878113,567.841797 796.205505,567.841797 
	C800.027466,557.221680 799.913086,545.801514 804.518066,535.694275 
	C804.951050,535.799500 805.384033,535.904724 805.817078,536.009949 
	C803.658936,546.530579 801.500732,557.051270 799.276978,567.891846 
	C802.851257,567.891846 805.145081,567.891846 807.796204,567.891846 
	C809.877075,557.877075 811.656311,547.782043 814.182068,537.877319 
	C815.261902,533.642334 815.644531,530.258057 811.215332,527.013794 
M971.003113,562.611816 
	C970.664856,564.276733 970.326538,565.941589 969.951599,567.786743 
	C973.138245,567.786743 975.908264,567.786743 978.249634,567.786743 
	C982.015747,557.156372 981.942261,545.776550 986.504333,535.705322 
	C986.938049,535.816162 987.371765,535.927002 987.805420,536.037842 
	C985.656128,546.592407 983.506775,557.146912 981.327698,567.847534 
	C985.018494,567.847534 987.325623,567.847534 989.699707,567.847534 
	C991.819214,558.158386 993.936707,548.606445 995.980652,539.038757 
	C996.451660,536.833679 996.974365,534.570007 996.938721,532.341797 
	C996.877075,528.486450 993.631714,526.646973 990.001099,527.933472 
	C988.559326,528.444397 987.226074,528.909485 985.304321,528.245422 
	C983.501343,527.622314 979.897949,528.303467 979.047729,529.649353 
	C977.327271,532.373169 976.783081,535.900391 976.024719,539.159363 
	C974.277222,546.669067 972.691589,554.216370 971.003113,562.611816 
M734.971619,561.177429 
	C735.276184,559.263062 735.544617,557.342163 735.891907,555.435547 
	C737.247742,547.990784 739.101929,540.597656 739.846802,533.093567 
	C740.418762,527.330383 737.232971,525.685181 732.287903,528.192505 
	C731.520752,528.581482 730.267090,528.364563 729.359680,528.062866 
	C725.089722,526.642944 721.955566,528.322510 720.991455,532.783997 
	C718.954956,542.208923 716.965820,551.644165 714.977600,561.079468 
	C714.526184,563.221558 714.157593,565.381042 713.697754,567.813477 
	C717.167786,567.813477 719.919006,567.813477 722.112183,567.813477 
	C724.492188,556.901306 726.803894,546.301880 729.115662,535.702454 
	C729.781921,535.847168 730.448181,535.991882 731.114441,536.136536 
	C729.014343,546.593323 726.914246,557.050110 724.809509,567.529724 
	C733.051636,568.606079 733.088989,568.583679 734.971619,561.177429 
M854.579346,568.000549 
	C862.176270,568.563660 866.527954,562.659668 867.839233,553.142517 
	C863.787170,553.338013 858.296448,550.694092 858.721252,558.570190 
	C858.744141,558.994019 857.515808,559.885742 856.937439,559.832031 
	C856.325439,559.775269 855.406189,558.920227 855.288513,558.289368 
	C854.253967,552.741150 856.721558,549.618713 862.485229,550.115417 
	C867.547119,550.551697 869.795288,548.696472 870.034363,543.818298 
	C870.071777,543.052734 870.757996,542.286377 870.701965,541.554138 
	C870.399048,537.596863 872.651184,533.489319 869.336853,529.686218 
	C864.712280,524.379517 855.442871,527.584045 853.184204,533.917603 
	C850.472717,541.520752 848.525146,549.482971 847.135620,557.444824 
	C845.920044,564.409912 847.890381,566.744873 854.579346,568.000549 
M662.970398,563.267273 
	C664.198792,560.088135 665.427185,556.909058 666.891479,553.119507 
	C661.463501,553.095093 656.348511,551.346313 656.866089,558.847778 
	C656.893494,559.244873 655.428345,559.744873 653.593262,560.821899 
	C654.175171,556.431152 654.588684,553.310730 655.036133,549.934387 
	C659.264160,549.934387 663.046509,549.934387 667.646545,549.934387 
	C668.112183,544.035522 668.641479,538.409302 668.919556,532.770630 
	C668.967224,531.803162 668.184509,530.483887 667.377136,529.835144 
	C661.773499,525.332520 653.143188,527.752869 651.063782,534.688477 
	C648.729370,542.474548 646.869934,550.411804 645.052124,558.340210 
	C644.148438,562.281616 647.373108,567.608582 650.648621,567.962036 
	C655.190918,568.452271 659.579590,568.161682 662.970398,563.267273 
M766.001221,564.530396 
	C766.795959,569.105225 769.889099,568.342346 772.992004,567.532227 
	C773.953125,567.281189 774.949036,566.653259 775.850220,566.776123 
	C778.819641,567.180725 781.752991,567.850281 784.056091,568.294006 
	C786.215271,558.045349 787.899536,548.706665 790.240479,539.535645 
	C791.327881,535.275635 791.529358,531.645569 787.948486,528.793030 
	C784.840332,526.317139 781.819214,527.285339 778.223755,528.780212 
	C772.485779,531.165833 771.686157,535.945374 770.036621,540.830872 
	C773.227722,540.830872 776.019226,540.830872 778.153320,540.830872 
	C779.247070,538.679749 780.141113,536.921326 781.297729,534.646545 
	C783.459656,539.854675 780.653137,541.840271 777.649780,543.751221 
	C775.475586,545.134583 773.119385,546.329773 771.221008,548.029419 
	C766.567200,552.196045 764.934265,557.537109 766.001221,564.530396 
M973.000488,541.126648 
	C973.000366,538.296082 973.148560,535.453491 972.920959,532.641357 
	C972.839539,531.634644 972.064880,530.430054 971.240784,529.778503 
	C965.795715,525.472900 957.195801,527.752136 955.102417,534.406616 
	C952.702026,542.036743 950.664856,549.818726 949.085571,557.658752 
	C947.574341,565.161011 953.840759,570.203918 960.883057,567.631226 
	C966.438782,565.601624 970.085388,559.568481 969.589783,553.612427 
	C962.674377,550.071655 961.072876,555.709167 958.871948,561.470337 
	C956.972229,551.136658 957.827942,550.011963 966.065796,549.999695 
	C967.548401,549.997437 969.031006,549.999390 970.526001,549.999390 
	C971.394775,547.190918 972.192383,544.612366 973.000488,541.126648 
M922.016907,530.742981 
	C920.823853,534.203064 919.288513,537.588318 918.512329,541.139526 
	C917.103516,547.585266 916.214417,554.142761 914.972595,560.627563 
	C914.344788,563.906311 915.809265,566.896118 918.335632,567.555298 
	C921.433960,568.363708 925.566467,568.357239 928.264648,566.888977 
	C933.707153,563.927246 934.930969,558.251343 934.922546,552.547668 
	C927.478455,549.876343 925.342041,554.432861 924.438782,560.724304 
	C923.912231,560.381104 923.385742,560.037903 922.859192,559.694702 
	C924.705139,551.471497 926.551147,543.248352 928.397095,535.025208 
	C928.974915,535.148376 929.552795,535.271606 930.130676,535.394836 
	C929.773621,537.840942 929.416626,540.286987 928.914001,543.730469 
	C932.345276,542.889221 935.994385,543.078735 937.599854,541.359619 
	C940.353516,538.411133 939.250427,531.711548 936.674194,529.194031 
	C933.720398,526.307434 929.037048,526.203247 924.575623,528.908447 
	C923.891907,529.323059 923.169434,529.673584 922.016907,530.742981 
M743.466125,536.016724 
	C743.871948,536.583496 744.690918,537.207031 744.622009,537.708496 
	C743.480469,546.015381 742.240662,554.308899 740.993774,562.601074 
	C740.431152,566.342651 742.773376,567.562500 745.781555,567.950134 
	C747.717163,568.199585 749.711060,567.996948 752.100647,567.996948 
	C752.100647,565.118896 752.316772,562.552979 752.006714,560.052307 
	C751.858459,558.856384 749.997925,557.688965 750.133545,556.671326 
	C751.046692,549.820496 752.287354,543.013306 753.419312,536.208130 
	C757.770691,535.674255 760.833252,531.927917 759.765930,528.261719 
	C758.609436,528.092468 757.377930,527.912170 755.779236,527.678162 
	C756.210754,524.381592 756.601746,521.394165 757.021362,518.188354 
	C754.262756,518.188354 751.823608,518.188354 749.307373,518.188354 
	C749.119995,519.013367 748.968262,519.783997 748.766846,520.541382 
	C748.520081,521.469116 748.291992,522.408936 747.947754,523.301941 
	C747.343384,524.869812 746.962769,527.487000 745.953125,527.772705 
	C740.994080,529.176025 742.325623,532.699524 743.466125,536.016724 
M997.947388,555.390503 
	C995.284607,564.088806 997.111694,569.971802 1008.658325,567.653503 
	C1009.016174,565.287781 1009.374084,562.922058 1009.756287,560.395752 
	C1008.621704,560.122375 1007.294006,559.802429 1005.564270,559.385620 
	C1007.250366,551.362366 1008.867188,543.668579 1010.519165,535.807861 
	C1016.889709,536.833130 1015.838989,531.814636 1017.205322,528.274109 
	C1015.279419,528.078125 1013.681519,527.915466 1012.119324,527.756470 
	C1012.847656,524.498657 1013.529419,521.449341 1014.261597,518.174438 
	C1011.137573,518.174438 1008.686462,518.174438 1006.972595,518.174438 
	C1003.760681,521.343079 1006.263428,526.816040 1000.437561,528.507751 
	C997.856079,529.257385 999.146973,535.425659 1001.788086,536.545105 
	C1000.519287,542.553345 999.256653,548.532532 997.947388,555.390503 
M633.995544,554.527954 
	C633.243958,558.897217 632.492310,563.266479 631.700745,567.868042 
	C634.794495,567.868042 637.084961,567.868042 639.838257,567.868042 
	C643.558167,550.369629 647.286743,532.830688 651.018982,515.274292 
	C647.636292,515.274292 644.877380,515.274292 642.776245,515.274292 
	C641.438538,520.178406 640.039490,524.610229 639.038330,529.130188 
	C637.233765,537.277466 635.667358,545.477539 633.995544,554.527954 
M153.953217,399.476624 
	C151.023270,403.844513 150.886108,408.582794 153.501083,412.857666 
	C157.092545,418.728821 165.469864,419.955536 170.688965,415.663727 
	C175.730270,411.518097 174.998917,402.392700 171.261078,397.861633 
	C168.626556,394.668030 157.258499,395.371002 153.953217,399.476624 
M951.053772,532.589722 
	C951.402893,531.164429 951.752075,529.739075 952.112183,528.269043 
	C948.650452,528.269043 945.893738,528.269043 943.435364,528.269043 
	C940.617737,541.580811 937.866394,554.579529 935.066833,567.806213 
	C938.047424,567.806213 940.823547,567.806213 943.599609,567.806213 
	C944.080566,565.885437 944.600952,564.057190 944.992432,562.201599 
	C947.013550,552.623230 949.001587,543.037781 951.053772,532.589722 
M907.389648,534.057556 
	C905.187195,545.208191 902.984741,556.358826 900.722046,567.814453 
	C904.134644,567.814453 906.887756,567.814453 909.272705,567.814453 
	C911.995911,554.552734 914.669373,541.533447 917.353821,528.460388 
	C908.688293,527.488831 908.598633,527.540100 907.389648,534.057556 
M917.134521,523.995300 
	C918.250610,521.202576 919.366638,518.409851 920.482727,515.617126 
	C920.131104,515.210632 919.779480,514.804077 919.427856,514.397522 
	C916.631958,515.153992 912.493896,515.024170 911.296997,516.836609 
	C907.982605,521.855774 909.771729,524.012817 917.134521,523.995300 
M954.001099,519.387024 
	C954.368408,518.057678 954.735657,516.728394 955.170471,515.154785 
	C951.955933,515.154785 949.197327,515.154785 946.293091,515.154785 
	C945.828491,518.163208 945.388794,521.010132 944.942627,523.898926 
	C949.117981,524.179993 952.747925,524.878662 954.001099,519.387024 
z"/>
<path fill="#FEFDF9" opacity="1.000000" stroke="none" 
	d="
M1.000010,586.467957 
	C2.001756,584.963745 3.367070,584.096741 3.942010,582.861816 
	C6.374938,577.635803 10.328399,574.921997 15.312244,577.121948 
	C19.850780,579.125122 21.060057,584.744202 18.355804,590.190308 
	C17.570107,591.772583 16.820442,593.372681 15.786900,595.520142 
	C22.084492,599.099976 28.429895,595.768066 34.539787,595.888611 
	C31.286285,587.013428 27.534472,578.376160 24.968906,569.399841 
	C21.272850,556.468140 19.390303,543.212158 21.991383,529.733154 
	C23.699896,520.879456 25.607264,512.062988 27.202736,503.189819 
	C27.413343,502.018524 26.586639,500.382111 25.758198,499.346985 
	C19.512032,491.542511 13.248252,484.035126 10.718717,473.755219 
	C8.531425,464.866211 13.871753,454.467651 24.798332,453.071686 
	C28.377827,452.614349 32.187782,452.422546 35.674191,453.152008 
	C40.370884,454.134674 41.938145,457.407654 40.936161,463.071594 
	C40.252312,466.937286 37.252411,468.672180 33.570374,468.971924 
	C24.199818,469.734741 24.070429,469.938629 29.635475,478.157928 
	C31.439760,480.822815 33.356140,483.411774 35.279495,486.117371 
	C49.058952,461.970856 69.135048,446.049622 94.456497,436.601562 
	C93.317955,430.786011 92.077690,424.879761 91.025925,418.940094 
	C90.214439,414.357361 93.474922,411.893524 96.930595,411.239044 
	C100.683189,410.528259 104.355461,412.523407 105.728951,416.503754 
	C107.136803,420.583588 107.915428,424.878876 109.013504,429.068329 
	C109.330925,430.279358 109.800209,431.450592 110.188309,432.605652 
	C147.224380,425.868958 196.462616,437.794342 225.446579,485.887329 
	C228.232101,482.117493 231.130814,478.470612 233.718079,474.614777 
	C236.273621,470.806122 235.200073,468.838867 230.535980,469.075897 
	C226.015381,469.305603 221.972366,468.309326 220.155090,464.123901 
	C217.944595,459.032928 220.106018,452.509918 227.583450,452.232056 
	C233.569443,452.009613 239.757019,453.277985 244.876160,457.318146 
	C251.375793,462.447815 251.133392,469.098602 249.409485,476.119690 
	C247.220551,485.034668 241.402527,491.826019 235.740860,498.610779 
	C233.807907,500.927124 232.627289,502.475616 233.896210,505.794098 
	C238.535797,517.927673 239.979874,530.681458 239.982910,543.600342 
	C239.986649,559.426819 233.452026,582.650208 225.279190,596.006592 
	C230.785950,596.341736 236.130295,596.741211 241.482056,596.928101 
	C242.511551,596.964050 243.570190,596.165833 244.400070,595.837585 
	C243.262680,591.902344 241.706085,588.050842 241.117889,584.056702 
	C240.511230,579.937256 243.035065,576.651367 247.040222,576.729309 
	C249.807098,576.783264 253.504120,578.593018 255.078735,580.823181 
	C259.359924,586.886658 261.734100,593.737732 259.143433,601.415161 
	C256.823486,608.290161 250.053741,613.166809 241.520355,612.901184 
	C233.526596,612.652344 225.561981,611.530884 217.575928,610.903076 
	C216.387238,610.809631 214.598572,610.880493 214.018478,611.612793 
	C201.993423,626.794006 186.314423,636.751343 168.559937,643.807861 
	C168.003799,644.028870 167.472534,644.312561 167.166092,644.456238 
	C168.151672,649.494751 169.285706,654.190491 169.933243,658.952332 
	C170.448212,662.739380 168.326996,665.343323 164.656876,665.902832 
	C160.624893,666.517456 156.595795,666.136047 155.085510,661.273499 
	C153.854980,657.311646 152.818008,653.289734 151.893600,650.000366 
	C142.578903,650.000366 133.527634,650.173035 124.485062,649.966064 
	C102.620644,649.465637 83.089104,641.930054 65.740173,629.018311 
	C58.993233,623.996948 53.383556,617.458435 47.133423,611.744934 
	C46.335598,611.015625 44.742283,610.712036 43.606800,610.866699 
	C34.088154,612.163269 24.684965,614.359924 14.939816,612.090332 
	C9.291729,610.774902 4.779125,608.252991 1.292903,603.710571 
	C1.000000,598.311951 1.000000,592.623962 1.000010,586.467957 
M69.017120,470.476624 
	C60.383915,478.455688 52.682083,487.171478 46.741364,498.619080 
	C58.598896,507.762115 70.164696,517.281433 82.358154,525.914246 
	C94.697922,534.650635 107.611397,542.583923 120.363693,550.727905 
	C129.447998,556.529419 129.613144,556.595276 139.395859,550.926453 
	C164.613159,536.313660 188.487869,519.768555 210.704056,500.860138 
	C212.982895,498.920624 213.688522,496.913483 211.867813,494.600739 
	C206.130417,487.312805 200.767532,479.631866 194.318192,473.021637 
	C177.286865,455.565460 155.705017,448.205688 131.831268,447.139648 
	C125.882912,446.874023 119.820839,448.101929 113.874496,449.043945 
	C97.084625,451.703796 82.356812,458.859253 69.017120,470.476624 
M139.620224,579.965698 
	C136.674850,578.324707 133.729477,576.683716 131.654556,575.527710 
	C108.618881,585.936462 86.124512,596.100647 63.784676,606.195007 
	C104.095543,647.210022 165.531326,639.748901 196.807404,606.072021 
	C178.219666,597.494812 159.302597,588.765625 139.620224,579.965698 
M206.985168,525.526184 
	C187.293427,539.189941 167.601669,552.853638 148.303070,566.244629 
	C153.526123,568.703796 159.798981,571.965271 166.307480,574.656921 
	C179.456192,580.094360 192.759689,585.156616 205.933899,590.533997 
	C208.545395,591.600037 209.735916,590.740906 210.915588,588.582458 
	C216.160873,578.985352 220.368744,569.042908 222.424774,558.206970 
	C225.196182,543.600891 224.660645,529.245300 220.351151,514.525452 
	C215.778381,518.252747 211.636719,521.628662 206.985168,525.526184 
M56.970318,527.464783 
	C51.386589,523.080933 45.802856,518.697021 40.220226,514.314026 
	C39.128433,519.651428 37.524799,524.806091 37.096737,530.056641 
	C35.403908,550.820679 38.990849,570.544861 50.002140,588.528320 
	C50.657749,589.598999 52.835163,590.746582 53.865623,590.429993 
	C74.341354,584.139709 93.781319,575.378418 112.209633,565.856506 
	C93.996941,553.255188 75.738739,540.622437 56.970318,527.464783 
z"/>
<path fill="#F7F3E9" opacity="1.000000" stroke="none" 
	d="
M940.289429,434.736847 
	C942.363525,439.760712 945.352966,444.405212 945.765991,449.268494 
	C946.595032,459.030487 946.018188,468.911957 946.020020,478.744080 
	C946.021484,486.367432 946.020386,493.990784 946.020386,502.027039 
	C940.694885,502.027039 935.729858,501.822754 930.790955,502.093689 
	C927.048889,502.298920 925.884705,500.972351 925.928162,497.250946 
	C926.101440,482.421051 925.771118,467.583038 926.093628,452.758179 
	C926.254517,445.364990 921.637268,441.545105 915.470825,441.047882 
	C909.399719,440.558380 904.351196,445.164490 904.081299,451.740906 
	C903.402283,468.285645 903.003784,484.841888 902.482910,501.715454 
	C896.790466,501.715454 890.726135,501.715454 884.000488,501.715454 
	C884.000488,497.457001 884.000610,493.191345 884.000488,488.925690 
	C884.000244,477.093475 884.047852,465.260956 883.980408,453.429138 
	C883.944092,447.059631 880.878296,442.728119 875.636353,441.258270 
	C868.983093,439.392700 861.005676,445.268402 861.004089,452.050079 
	C861.000610,467.048645 860.875061,482.049194 861.098389,497.044464 
	C861.158569,501.085052 859.863403,502.406677 855.935852,502.089691 
	C852.293274,501.795746 848.604614,501.926758 844.943176,502.060394 
	C842.270691,502.157898 840.968628,501.345276 840.976929,498.410370 
	C841.043762,474.776978 841.014343,451.143311 841.014343,427.000366 
	C845.886047,427.000366 850.606445,426.418091 855.054504,427.265259 
	C857.044922,427.644348 858.489197,430.890778 860.311096,432.985168 
	C864.694641,427.882294 871.660828,425.043304 879.220825,425.172272 
	C886.926819,425.303741 892.969910,429.329437 895.517761,435.756104 
	C900.753601,432.626617 905.518799,428.851074 910.933105,426.743011 
	C920.992249,422.826508 936.884033,427.083710 940.289429,434.736847 
z"/>
<path fill="#F7F3E9" opacity="1.000000" stroke="none" 
	d="
M554.780823,489.970520 
	C554.476624,482.880402 560.602966,475.173004 565.829102,476.144043 
	C568.516968,476.643463 571.019104,478.479645 573.449219,479.966675 
	C581.758728,485.051178 590.123474,487.311127 599.427246,482.198608 
	C603.821045,479.784180 605.119507,476.473236 605.089600,471.788940 
	C605.060669,467.263763 603.872925,463.674194 599.447266,461.948273 
	C591.562927,458.873657 583.617371,455.955627 575.694031,452.981232 
	C560.119629,447.134613 555.333740,430.652100 559.488892,416.825562 
	C563.256104,404.289642 576.973694,396.438812 588.083740,395.903351 
	C599.060547,395.374329 609.323303,396.663300 618.767700,402.873352 
	C622.848633,405.556610 624.396973,408.076569 621.284058,412.345184 
	C620.156067,413.891907 619.287354,415.628113 618.306641,417.281586 
	C616.349304,420.581390 613.729370,420.580231 610.535339,419.128021 
	C606.053162,417.090210 601.558838,414.983398 596.882751,413.492035 
	C590.901245,411.584381 580.150330,414.630035 578.750305,421.591370 
	C577.609253,427.264343 578.257080,430.713531 583.654724,433.129333 
	C591.538879,436.658020 599.523071,440.034088 607.668579,442.894348 
	C629.302673,450.491058 628.241211,474.232178 619.935059,487.422424 
	C613.845154,497.093292 604.480774,500.967804 593.052917,502.264587 
	C580.684509,503.668152 570.216858,500.169037 560.118408,493.997437 
	C558.326477,492.902313 556.805542,491.363708 554.780823,489.970520 
z"/>
<path fill="#F7F3E8" opacity="1.000000" stroke="none" 
	d="
M500.998047,447.513428 
	C500.498657,449.408447 500.064331,450.985077 500.057495,452.563507 
	C499.992615,467.548370 499.902679,482.534576 500.058777,497.517914 
	C500.095764,501.070251 498.931549,502.210052 495.456543,502.038422 
	C490.496124,501.793365 485.514557,501.976013 480.267334,501.976013 
	C480.267334,466.067810 480.267334,430.353943 480.267334,394.319031 
	C486.552246,394.319031 492.958191,394.319031 499.866608,394.319031 
	C499.866608,406.648865 499.866608,419.183136 499.866608,430.974335 
	C505.859131,429.236267 511.509552,427.385254 517.267883,425.974701 
	C527.049438,423.578583 539.813721,430.093079 542.894043,439.393890 
	C544.543945,444.375610 545.739319,449.725739 545.887024,454.945068 
	C546.287292,469.086151 545.933228,483.247009 546.075745,497.398041 
	C546.109863,500.790955 545.209473,502.238708 541.581726,502.043030 
	C536.612549,501.774994 531.618042,501.976013 525.999451,501.976013 
	C525.999451,497.456329 525.999390,493.038544 525.999451,488.620728 
	C525.999512,477.132050 525.588501,465.624359 526.118103,454.160126 
	C526.624329,443.200623 517.048340,437.607483 506.718781,443.127625 
	C504.740051,444.185028 503.072571,445.824799 500.998047,447.513428 
z"/>
<path fill="#F7F3E8" opacity="1.000000" stroke="none" 
	d="
M636.159180,396.028015 
	C637.066711,395.351562 637.953796,394.124664 638.885254,394.090118 
	C644.031799,393.899109 649.189270,393.998718 654.703552,393.998718 
	C654.703552,406.877319 654.703552,419.624420 654.703552,431.317505 
	C661.500000,429.199890 668.123413,426.576050 674.994629,425.127289 
	C685.179138,422.979889 699.372864,433.389832 699.792908,444.179840 
	C700.533325,463.201843 700.000000,482.273376 700.000000,501.652588 
	C694.814087,501.652588 688.735535,501.652588 682.254272,501.652588 
	C682.182434,500.662323 682.013977,499.406250 682.012085,498.149902 
	C681.991821,484.655304 682.068909,471.160034 681.942871,457.666565 
	C681.914246,454.606232 681.531433,451.464935 680.739014,448.514771 
	C679.361694,443.387512 673.964355,439.742950 668.769714,441.176971 
	C664.398926,442.383606 660.299072,444.866455 656.401978,447.300873 
	C655.337402,447.965942 655.067688,450.490967 655.058044,452.166016 
	C654.963440,468.623230 655.000916,485.081177 655.000916,502.533691 
	C648.540710,501.917908 642.450256,501.337341 636.536011,500.031494 
	C636.807373,498.654541 636.985229,498.002960 636.985535,497.351318 
	C636.999939,464.827118 637.008423,432.302948 636.964355,399.778809 
	C636.962708,398.528198 636.439392,397.278290 636.159180,396.028015 
z"/>
<path fill="#F7F3E8" opacity="1.000000" stroke="none" 
	d="
M290.889709,414.035095 
	C282.061371,414.023438 273.232178,414.066986 264.405640,413.935089 
	C263.210815,413.917267 261.056030,413.116669 260.995758,412.513702 
	C260.525818,407.810242 260.377899,403.066071 260.401703,398.335846 
	C260.403992,397.886047 262.228668,397.321014 263.269623,397.041779 
	C264.046753,396.833252 264.924377,396.998932 265.757263,396.998932 
	C291.701294,396.998840 317.645325,396.998840 343.791809,396.998840 
	C343.791809,402.754486 343.791809,408.159912 343.791809,413.963074 
	C333.586792,413.963074 323.512634,413.963074 313.072937,413.963074 
	C313.072937,443.420288 313.072937,472.484680 313.072937,502.515411 
	C305.771240,501.980530 298.889374,501.476410 291.995117,500.061127 
	C291.988434,472.471558 292.014404,445.793060 291.952332,419.114838 
	C291.948395,417.420776 291.259796,415.728302 290.889709,414.035095 
z"/>
<path fill="#F7F3E8" opacity="1.000000" stroke="none" 
	d="
M391.478943,481.006622 
	C392.050629,481.045288 392.258331,481.024506 392.370880,481.118134 
	C401.475922,488.693573 401.203339,492.918274 390.488647,497.768982 
	C375.606781,504.506256 360.570312,505.347626 346.326385,495.987457 
	C337.049866,489.891571 333.178589,480.557190 331.938385,469.770538 
	C330.867035,460.452362 331.498535,451.520264 335.977478,443.111786 
	C341.686340,432.394196 350.748901,426.974701 362.738190,425.968964 
	C370.361481,425.329468 377.511169,426.091827 384.498138,429.778534 
	C394.602875,435.110352 399.030304,443.951752 399.831940,454.458374 
	C400.785583,466.957031 400.236298,466.998962 387.939575,466.998962 
	C375.798309,466.998962 363.657074,466.998932 351.518982,466.998932 
	C351.402588,482.972687 364.429352,490.685913 378.073669,485.497681 
	C382.356689,483.869080 386.735565,482.492523 391.478943,481.006622 
M365.829926,440.001862 
	C356.276978,443.156494 351.584473,448.428192 352.629059,454.785492 
	C362.386078,454.785492 372.135101,454.785492 381.875610,454.785492 
	C382.080261,445.990417 375.855072,440.019836 365.829926,440.001862 
z"/>
<path fill="#F7F4E9" opacity="1.000000" stroke="none" 
	d="
M713.989380,493.812927 
	C709.371399,487.633423 709.993286,476.276642 714.616577,470.754913 
	C721.548340,462.476074 731.109070,460.521667 740.933167,459.026886 
	C745.107910,458.391693 749.326355,458.044617 753.558960,457.562744 
	C755.332886,447.265411 752.799988,442.817780 745.010925,441.331238 
	C741.149170,440.594177 736.217896,442.105255 732.593445,444.096893 
	C720.747803,450.606049 718.137695,446.462311 713.902832,437.772247 
	C719.608887,430.877197 727.429382,427.805023 735.931763,426.007935 
	C742.739990,424.568848 749.384094,424.811188 756.151367,426.891113 
	C765.782898,429.851379 772.670044,440.017944 772.951477,448.884613 
	C773.461304,464.942963 773.566650,481.014252 774.090820,497.071991 
	C774.224487,501.167236 772.760254,502.179321 768.896484,502.083221 
	C760.278137,501.868896 758.486572,500.895691 756.455261,493.529144 
	C749.012939,500.626221 739.894470,503.342529 730.195984,502.788086 
	C723.945129,502.430756 717.882751,499.974915 713.989380,493.812927 
M740.114258,472.393555 
	C738.468079,472.938629 736.729126,473.298279 735.194275,474.065887 
	C731.551270,475.887787 728.725037,478.844330 730.233704,482.959137 
	C731.016602,485.094482 733.961243,487.168121 736.335999,487.846741 
	C742.527649,489.616119 748.446960,487.287872 752.252808,482.768921 
	C754.428772,480.185211 753.852234,475.283356 754.669189,470.527283 
	C749.218994,471.121277 745.052673,471.575348 740.114258,472.393555 
z"/>
<path fill="#F7F4E9" opacity="1.000000" stroke="none" 
	d="
M999.875000,426.961365 
	C1009.677002,429.441315 1017.205444,441.319427 1017.068726,450.801361 
	C1016.824463,467.740234 1017.000061,484.685150 1017.000061,501.582153 
	C1004.372070,503.055023 1003.325317,499.864258 1001.384888,493.975037 
	C997.743408,496.016937 994.253296,498.345612 990.473083,500.018555 
	C981.799744,503.856995 972.855957,504.003876 964.410278,499.673798 
	C957.373840,496.066254 955.235901,488.704163 955.306519,481.748047 
	C955.382141,474.297882 959.491760,468.328125 966.683228,464.640015 
	C975.082031,460.332764 984.076782,459.038452 993.205994,458.027893 
	C994.977905,457.831757 996.790161,457.999695 998.999390,457.999695 
	C998.999390,456.197662 998.941406,454.745819 999.008667,453.299774 
	C999.490540,442.936493 990.272461,439.103699 982.894775,441.687286 
	C979.600281,442.841034 976.440674,444.473541 973.377563,446.173035 
	C968.621948,448.811523 963.784729,447.598236 961.379883,442.855042 
	C960.442017,441.005249 959.650330,439.081360 958.675781,436.935211 
	C970.908020,427.387146 983.887207,421.991974 999.875000,426.961365 
M998.620850,470.294159 
	C996.681091,470.531586 994.693176,470.575684 992.810852,471.044037 
	C987.896362,472.266907 982.899902,473.336456 978.183533,475.121155 
	C974.645081,476.460022 973.299255,479.352112 974.972168,483.317688 
	C976.753174,487.539520 979.564514,488.905304 985.812683,487.988068 
	C995.970703,486.496765 999.020996,483.051514 998.999268,473.090759 
	C998.997864,472.427612 998.981323,471.764465 998.620850,470.294159 
z"/>
<path fill="#F7F3E9" opacity="1.000000" stroke="none" 
	d="
M437.669312,485.888428 
	C444.445953,487.967255 450.418762,487.428986 456.047668,483.489899 
	C462.154205,479.216583 468.937927,481.601135 470.848450,488.691132 
	C471.101257,489.629333 470.217590,491.212982 469.400116,492.046265 
	C463.389893,498.172729 456.198029,501.355560 447.477539,502.179443 
	C439.858521,502.899261 432.689789,502.509125 425.936615,498.974335 
	C414.312347,492.889801 409.243713,482.542084 408.035736,470.013214 
	C407.033722,459.620575 407.861145,449.505829 413.941589,440.479370 
	C419.933014,431.585114 428.117188,426.791656 438.947327,425.875824 
	C445.635101,425.310272 452.097137,425.432983 458.227875,428.074219 
	C461.862366,429.640045 465.161865,432.002075 468.548126,434.108795 
	C469.180511,434.502228 470.060944,435.698303 469.893677,435.991302 
	C468.078308,439.171692 466.498596,442.688171 463.927368,445.140961 
	C462.828979,446.188782 459.188141,445.640564 457.336670,444.641998 
	C449.890900,440.626160 442.166473,438.416321 435.170288,444.217407 
	C431.774414,447.033234 429.339417,451.973022 428.282043,456.385651 
	C427.112518,461.266357 427.502655,466.709503 428.151215,471.787933 
	C428.904602,477.687378 432.955536,481.947449 437.669312,485.888428 
z"/>
<path fill="#F7F3E9" opacity="1.000000" stroke="none" 
	d="
M807.998047,468.015991 
	C807.997986,478.169495 807.862854,487.828857 808.068665,497.480988 
	C808.144348,501.029114 806.899902,502.255096 803.457214,502.073090 
	C799.638611,501.871155 795.794312,501.887115 791.973877,502.070679 
	C788.872253,502.219757 787.944641,500.926575 787.955200,497.952728 
	C788.035645,475.310181 788.043945,452.667053 787.946838,430.024628 
	C787.933472,426.924591 789.131104,425.767853 792.057922,425.962830 
	C793.052429,426.029114 794.058960,425.915649 795.053467,425.981873 
	C805.072510,426.648804 805.718445,427.117737 806.104858,436.465424 
	C810.777771,432.321869 813.989014,425.918945 821.103882,425.473297 
	C824.862244,425.237885 829.121216,425.525726 832.325928,427.180908 
	C833.846252,427.966156 833.587585,432.496460 833.814331,435.355560 
	C833.924194,436.740570 833.119202,438.173492 833.032593,439.603180 
	C832.729675,444.601501 831.071106,445.685272 825.955383,444.476166 
	C816.240417,442.179932 809.668579,448.442566 808.080688,458.042297 
	C807.571350,461.121490 807.999146,464.355713 807.998047,468.015991 
z"/>
<path fill="#FEFDF9" opacity="1.000000" stroke="none" 
	d="
M230.321365,438.177856 
	C215.494308,454.479614 190.787369,446.702148 185.584518,429.272400 
	C182.112946,417.642456 186.482101,404.493195 196.345245,398.373901 
	C198.681015,396.924744 201.835571,396.046631 204.572113,396.138489 
	C211.590073,396.374084 218.523743,394.867157 225.429947,399.481171 
	C236.082306,406.597931 239.394424,425.237183 232.058960,435.431610 
	C231.498260,436.210846 231.080139,437.092712 230.321365,438.177856 
M202.409866,415.061096 
	C199.540588,418.192932 198.881088,421.824982 201.202972,425.316681 
	C203.271622,428.427582 205.916367,431.590820 210.298676,430.929504 
	C214.542908,430.289032 218.429581,428.767761 219.995361,424.067810 
	C221.266129,420.253479 219.397476,414.589539 215.766235,412.308990 
	C212.517212,410.268524 206.363235,409.870514 202.409866,415.061096 
z"/>
<path fill="#F7F3E8" opacity="1.000000" stroke="none" 
	d="
M896.142273,521.359497 
	C898.771423,514.558594 903.963806,514.432373 910.021362,515.276794 
	C909.290649,517.680237 908.190979,522.130737 907.915344,522.080261 
	C903.136902,521.205383 904.473328,525.516602 903.199097,526.855164 
	C904.275818,527.970520 905.943420,528.971375 905.840698,529.733704 
	C905.577087,531.690674 904.767456,534.997620 903.747803,535.165649 
	C900.528564,535.695984 901.074829,538.032471 900.643799,539.819946 
	C898.423218,549.027771 896.330505,558.266418 894.120239,567.809204 
	C891.928772,567.809204 889.172424,567.809204 886.005676,567.809204 
	C886.005676,566.523438 885.787720,565.358215 886.040649,564.306091 
	C887.836853,556.834473 889.816040,549.405945 891.539673,541.918274 
	C892.072021,539.605713 893.648010,536.345581 889.802612,535.518616 
	C886.532715,534.815491 884.488403,536.463257 883.916626,540.219543 
	C882.875366,547.060547 881.235229,553.807983 880.019165,560.625549 
	C878.675476,568.158447 877.998962,568.706421 869.744873,567.484192 
	C871.728821,557.866272 873.770386,548.279846 875.597290,538.652649 
	C875.789551,537.639404 874.716919,536.386108 874.231140,535.244141 
	C873.814880,535.309570 873.398682,535.375000 872.982422,535.440430 
	C873.433533,533.097961 873.884644,530.755554 874.335754,528.413086 
	C874.681458,528.629578 875.027161,528.846008 875.372864,529.062500 
	C876.586975,527.436829 878.280884,525.982605 878.933167,524.156311 
	C881.980713,515.624207 883.506836,514.524048 893.059875,515.354736 
	C892.096863,518.040283 895.044312,522.223633 889.099487,522.730896 
	C888.020935,522.822815 887.189087,525.805908 886.192139,527.543518 
	C893.689209,528.450806 893.689209,528.450806 896.142273,521.359497 
z"/>
<path fill="#F7F4E8" opacity="1.000000" stroke="none" 
	d="
M695.973572,534.917297 
	C690.140320,535.727356 690.624573,540.740295 690.107727,544.533203 
	C688.689392,554.942871 685.168701,557.143372 675.892273,559.475220 
	C678.142700,560.420166 679.948853,561.314941 681.842224,561.950012 
	C690.005432,564.687988 691.297668,571.348145 685.059387,577.483398 
	C680.624756,581.844849 672.013184,582.100159 666.579407,580.017883 
	C660.738159,577.779541 661.349426,572.095703 667.597961,567.768127 
	C665.200012,562.253723 666.473145,558.760986 672.545410,556.152344 
	C671.569092,555.557068 670.297363,555.140503 670.299316,554.729980 
	C670.342590,545.582031 669.762512,536.211243 677.838867,529.443481 
	C681.051147,526.751709 684.510986,525.425720 688.023865,528.565186 
	C691.672119,531.825623 693.597351,526.903870 697.103943,527.072449 
	C696.716797,529.544617 696.352600,531.870117 695.965332,534.595825 
	C695.942200,534.996094 695.973572,534.917297 695.973572,534.917297 
M682.329651,536.033508 
	C679.279053,540.537354 678.397522,545.578674 678.741089,550.946716 
	C681.729980,546.429749 682.632202,541.299194 682.329651,536.033508 
M679.340759,572.085327 
	C677.631165,571.195435 675.978760,569.877136 674.182434,569.637451 
	C673.513184,569.548218 672.507568,571.980225 671.655334,573.262512 
	C671.973511,573.674622 672.291626,574.086731 672.609741,574.498901 
	C674.687744,573.898865 676.765686,573.298828 679.340759,572.085327 
z"/>
<path fill="#F8F4E9" opacity="1.000000" stroke="none" 
	d="
M817.732544,538.605957 
	C818.616089,535.995361 819.062500,533.659241 819.973511,531.520996 
	C822.010986,526.738525 825.377502,525.984985 830.201599,529.221619 
	C831.373291,524.487671 832.476990,520.028503 833.663025,515.236572 
	C835.936890,515.236572 838.703674,515.236572 842.128540,515.236572 
	C838.345703,532.812866 834.584412,550.289307 830.813782,567.809021 
	C826.361694,568.694885 822.122314,566.854004 817.759888,567.874329 
	C814.632019,568.605957 812.556213,566.443848 813.069397,563.224976 
	C814.363159,555.110474 816.004272,547.051453 817.732544,538.605957 
M826.591370,548.929321 
	C827.318604,544.670959 828.045837,540.412537 828.773071,536.154175 
	C828.140076,536.036560 827.507019,535.919006 826.874023,535.801453 
	C825.151489,543.743164 823.428955,551.684875 821.706421,559.626587 
	C822.314331,559.776184 822.922241,559.925720 823.530151,560.075317 
	C824.370789,556.587097 825.211487,553.098938 826.591370,548.929321 
z"/>
<path fill="#F7F3E9" opacity="1.000000" stroke="none" 
	d="
M635.805420,514.999512 
	C640.651489,514.621582 638.917542,517.993896 638.858826,519.770569 
	C638.811707,521.195068 637.234375,523.873901 636.740723,523.783630 
	C628.932007,522.355469 626.205688,526.143677 626.337646,533.266357 
	C626.348999,533.881714 626.057434,534.502686 625.771423,535.675415 
	C628.180298,535.856445 630.373291,536.021240 632.878296,536.209473 
	C632.237061,538.533447 631.899414,540.913513 630.895813,542.968323 
	C630.277039,544.235168 628.674011,545.795715 627.458191,545.843872 
	C624.431152,545.963867 623.028931,546.647278 622.840759,550.060852 
	C622.687927,552.834229 621.286255,555.538757 620.265015,558.833496 
	C623.849976,558.833496 626.618225,558.833496 630.202576,558.833496 
	C629.763062,562.063232 629.384521,564.844421 628.982544,567.798462 
	C622.662354,567.798462 616.553223,567.798462 609.869141,567.798462 
	C613.617737,550.169067 617.334473,532.689270 621.095947,514.999451 
	C626.048523,514.999451 630.687134,514.999451 635.805420,514.999512 
z"/>
<path fill="#F7F4E9" opacity="1.000000" stroke="none" 
	d="
M811.573608,527.194946 
	C815.644531,530.258057 815.261902,533.642334 814.182068,537.877319 
	C811.656311,547.782043 809.877075,557.877075 807.796204,567.891846 
	C805.145081,567.891846 802.851257,567.891846 799.276978,567.891846 
	C801.500732,557.051270 803.658936,546.530579 805.817078,536.009949 
	C805.384033,535.904724 804.951050,535.799500 804.518066,535.694275 
	C799.913086,545.801514 800.027466,557.221680 796.205505,567.841797 
	C793.878113,567.841797 791.103638,567.841797 788.090637,567.841797 
	C789.554138,560.817993 790.929749,553.953125 792.427490,547.115112 
	C793.522034,542.117859 795.069946,537.201904 795.862732,532.162781 
	C796.434814,528.526550 798.318420,527.180786 801.432922,528.092896 
	C804.981689,529.132202 808.017090,527.871216 811.573608,527.194946 
z"/>
<path fill="#F7F4E8" opacity="1.000000" stroke="none" 
	d="
M971.021667,562.180115 
	C972.691589,554.216370 974.277222,546.669067 976.024719,539.159363 
	C976.783081,535.900391 977.327271,532.373169 979.047729,529.649353 
	C979.897949,528.303467 983.501343,527.622314 985.304321,528.245422 
	C987.226074,528.909485 988.559326,528.444397 990.001099,527.933472 
	C993.631714,526.646973 996.877075,528.486450 996.938721,532.341797 
	C996.974365,534.570007 996.451660,536.833679 995.980652,539.038757 
	C993.936707,548.606445 991.819214,558.158386 989.699707,567.847534 
	C987.325623,567.847534 985.018494,567.847534 981.327698,567.847534 
	C983.506775,557.146912 985.656128,546.592407 987.805420,536.037842 
	C987.371765,535.927002 986.938049,535.816162 986.504333,535.705322 
	C981.942261,545.776550 982.015747,557.156372 978.249634,567.786743 
	C975.908264,567.786743 973.138245,567.786743 969.951599,567.786743 
	C970.326538,565.941589 970.664856,564.276733 971.021667,562.180115 
z"/>
<path fill="#F7F3E9" opacity="1.000000" stroke="none" 
	d="
M734.774658,561.564758 
	C733.088989,568.583679 733.051636,568.606079 724.809509,567.529724 
	C726.914246,557.050110 729.014343,546.593323 731.114441,536.136536 
	C730.448181,535.991882 729.781921,535.847168 729.115662,535.702454 
	C726.803894,546.301880 724.492188,556.901306 722.112183,567.813477 
	C719.919006,567.813477 717.167786,567.813477 713.697754,567.813477 
	C714.157593,565.381042 714.526184,563.221558 714.977600,561.079468 
	C716.965820,551.644165 718.954956,542.208923 720.991455,532.783997 
	C721.955566,528.322510 725.089722,526.642944 729.359680,528.062866 
	C730.267090,528.364563 731.520752,528.581482 732.287903,528.192505 
	C737.232971,525.685181 740.418762,527.330383 739.846802,533.093567 
	C739.101929,540.597656 737.247742,547.990784 735.891907,555.435547 
	C735.544617,557.342163 735.276184,559.263062 734.774658,561.564758 
z"/>
<path fill="#F7F3E8" opacity="1.000000" stroke="none" 
	d="
M854.155151,568.000610 
	C847.890381,566.744873 845.920044,564.409912 847.135620,557.444824 
	C848.525146,549.482971 850.472717,541.520752 853.184204,533.917603 
	C855.442871,527.584045 864.712280,524.379517 869.336853,529.686218 
	C872.651184,533.489319 870.399048,537.596863 870.701965,541.554138 
	C870.757996,542.286377 870.071777,543.052734 870.034363,543.818298 
	C869.795288,548.696472 867.547119,550.551697 862.485229,550.115417 
	C856.721558,549.618713 854.253967,552.741150 855.288513,558.289368 
	C855.406189,558.920227 856.325439,559.775269 856.937439,559.832031 
	C857.515808,559.885742 858.744141,558.994019 858.721252,558.570190 
	C858.296448,550.694092 863.787170,553.338013 867.839233,553.142517 
	C866.527954,562.659668 862.176270,568.563660 854.155151,568.000610 
z"/>
<path fill="#F8F4E9" opacity="1.000000" stroke="none" 
	d="
M662.775269,563.600952 
	C659.579590,568.161682 655.190918,568.452271 650.648621,567.962036 
	C647.373108,567.608582 644.148438,562.281616 645.052124,558.340210 
	C646.869934,550.411804 648.729370,542.474548 651.063782,534.688477 
	C653.143188,527.752869 661.773499,525.332520 667.377136,529.835144 
	C668.184509,530.483887 668.967224,531.803162 668.919556,532.770630 
	C668.641479,538.409302 668.112183,544.035522 667.646545,549.934387 
	C663.046509,549.934387 659.264160,549.934387 655.036133,549.934387 
	C654.588684,553.310730 654.175171,556.431152 653.593262,560.821899 
	C655.428345,559.744873 656.893494,559.244873 656.866089,558.847778 
	C656.348511,551.346313 661.463501,553.095093 666.891479,553.119507 
	C665.427185,556.909058 664.198792,560.088135 662.775269,563.600952 
z"/>
<path fill="#F7F4E8" opacity="1.000000" stroke="none" 
	d="
M695.901733,535.008789 
	C696.879700,534.192810 698.221741,533.560425 698.862854,532.503052 
	C702.411682,526.649658 710.415161,525.048218 714.276428,530.050720 
	C715.823608,532.055054 716.298889,535.657837 715.851013,538.293213 
	C714.208496,547.959717 711.976318,557.526184 709.945251,567.125854 
	C709.888855,567.392456 709.596619,567.609192 709.077515,568.292725 
	C706.508179,567.931641 703.697937,567.536682 700.079102,567.028076 
	C698.472290,567.185120 695.329102,568.426575 693.438599,567.388000 
	C691.863037,566.522339 691.108826,562.979736 691.117004,560.626709 
	C691.145935,552.303467 695.760254,546.635620 703.109985,543.539246 
	C707.223083,541.806458 707.525635,538.839722 707.972961,535.531433 
	C707.474304,535.321655 706.975647,535.111938 706.476990,534.902161 
	C705.770813,536.755066 705.064636,538.607910 704.223511,540.814758 
	C702.013611,540.814758 699.246277,540.814758 695.868408,540.814758 
	C696.155212,538.990356 696.418823,537.313660 696.328003,535.277100 
	C695.973572,534.917297 695.942200,534.996094 695.901733,535.008789 
M702.884888,551.673096 
	C700.526611,554.065613 698.868164,556.596680 700.327209,559.744690 
	C700.867493,559.869812 701.407776,559.994995 701.948059,560.120117 
	C702.660889,557.438904 703.373718,554.757690 704.644958,551.879150 
	C704.682434,551.340393 704.719910,550.801636 704.757385,550.262878 
	C704.317200,550.581543 703.877014,550.900269 702.884888,551.673096 
z"/>
<path fill="#F8F4E9" opacity="1.000000" stroke="none" 
	d="
M765.980286,564.111450 
	C764.934265,557.537109 766.567200,552.196045 771.221008,548.029419 
	C773.119385,546.329773 775.475586,545.134583 777.649780,543.751221 
	C780.653137,541.840271 783.459656,539.854675 781.297729,534.646545 
	C780.141113,536.921326 779.247070,538.679749 778.153320,540.830872 
	C776.019226,540.830872 773.227722,540.830872 770.036621,540.830872 
	C771.686157,535.945374 772.485779,531.165833 778.223755,528.780212 
	C781.819214,527.285339 784.840332,526.317139 787.948486,528.793030 
	C791.529358,531.645569 791.327881,535.275635 790.240479,539.535645 
	C787.899536,548.706665 786.215271,558.045349 784.056091,568.294006 
	C781.752991,567.850281 778.819641,567.180725 775.850220,566.776123 
	C774.949036,566.653259 773.953125,567.281189 772.992004,567.532227 
	C769.889099,568.342346 766.795959,569.105225 765.980286,564.111450 
M774.948608,559.390930 
	C778.453735,557.531067 779.247742,555.538818 777.504028,550.040283 
	C776.462463,552.991638 775.420959,555.942932 774.948608,559.390930 
z"/>
<path fill="#F7F4E9" opacity="1.000000" stroke="none" 
	d="
M972.995239,541.580261 
	C972.192383,544.612366 971.394775,547.190918 970.526001,549.999390 
	C969.031006,549.999390 967.548401,549.997437 966.065796,549.999695 
	C957.827942,550.011963 956.972229,551.136658 958.871948,561.470337 
	C961.072876,555.709167 962.674377,550.071655 969.589783,553.612427 
	C970.085388,559.568481 966.438782,565.601624 960.883057,567.631226 
	C953.840759,570.203918 947.574341,565.161011 949.085571,557.658752 
	C950.664856,549.818726 952.702026,542.036743 955.102417,534.406616 
	C957.195801,527.752136 965.795715,525.472900 971.240784,529.778503 
	C972.064880,530.430054 972.839539,531.634644 972.920959,532.641357 
	C973.148560,535.453491 973.000366,538.296082 972.995239,541.580261 
M964.969421,535.910095 
	C962.459656,535.740417 961.218750,536.793945 961.073120,539.704407 
	C961.019714,540.772949 961.754089,541.880920 962.129150,542.970947 
	C962.990906,541.866150 964.023132,540.849243 964.653870,539.625366 
	C965.067993,538.821960 964.902161,537.719666 964.969421,535.910095 
z"/>
<path fill="#F8F4E9" opacity="1.000000" stroke="none" 
	d="
M922.240845,530.398376 
	C923.169434,529.673584 923.891907,529.323059 924.575623,528.908447 
	C929.037048,526.203247 933.720398,526.307434 936.674194,529.194031 
	C939.250427,531.711548 940.353516,538.411133 937.599854,541.359619 
	C935.994385,543.078735 932.345276,542.889221 928.914001,543.730469 
	C929.416626,540.286987 929.773621,537.840942 930.130676,535.394836 
	C929.552795,535.271606 928.974915,535.148376 928.397095,535.025208 
	C926.551147,543.248352 924.705139,551.471497 922.859192,559.694702 
	C923.385742,560.037903 923.912231,560.381104 924.438782,560.724304 
	C925.342041,554.432861 927.478455,549.876343 934.922546,552.547668 
	C934.930969,558.251343 933.707153,563.927246 928.264648,566.888977 
	C925.566467,568.357239 921.433960,568.363708 918.335632,567.555298 
	C915.809265,566.896118 914.344788,563.906311 914.972595,560.627563 
	C916.214417,554.142761 917.103516,547.585266 918.512329,541.139526 
	C919.288513,537.588318 920.823853,534.203064 922.240845,530.398376 
z"/>
<path fill="#F7F3E8" opacity="1.000000" stroke="none" 
	d="
M743.035583,535.993530 
	C742.325623,532.699524 740.994080,529.176025 745.953125,527.772705 
	C746.962769,527.487000 747.343384,524.869812 747.947754,523.301941 
	C748.291992,522.408936 748.520081,521.469116 748.766846,520.541382 
	C748.968262,519.783997 749.119995,519.013367 749.307373,518.188354 
	C751.823608,518.188354 754.262756,518.188354 757.021362,518.188354 
	C756.601746,521.394165 756.210754,524.381592 755.779236,527.678162 
	C757.377930,527.912170 758.609436,528.092468 759.765930,528.261719 
	C760.833252,531.927917 757.770691,535.674255 753.419312,536.208130 
	C752.287354,543.013306 751.046692,549.820496 750.133545,556.671326 
	C749.997925,557.688965 751.858459,558.856384 752.006714,560.052307 
	C752.316772,562.552979 752.100647,565.118896 752.100647,567.996948 
	C749.711060,567.996948 747.717163,568.199585 745.781555,567.950134 
	C742.773376,567.562500 740.431152,566.342651 740.993774,562.601074 
	C742.240662,554.308899 743.480469,546.015381 744.622009,537.708496 
	C744.690918,537.207031 743.871948,536.583496 743.035583,535.993530 
z"/>
<path fill="#F7F3E8" opacity="1.000000" stroke="none" 
	d="
M997.970703,554.951172 
	C999.256653,548.532532 1000.519287,542.553345 1001.788086,536.545105 
	C999.146973,535.425659 997.856079,529.257385 1000.437561,528.507751 
	C1006.263428,526.816040 1003.760681,521.343079 1006.972595,518.174438 
	C1008.686462,518.174438 1011.137573,518.174438 1014.261597,518.174438 
	C1013.529419,521.449341 1012.847656,524.498657 1012.119324,527.756470 
	C1013.681519,527.915466 1015.279419,528.078125 1017.205322,528.274109 
	C1015.838989,531.814636 1016.889709,536.833130 1010.519165,535.807861 
	C1008.867188,543.668579 1007.250366,551.362366 1005.564270,559.385620 
	C1007.294006,559.802429 1008.621704,560.122375 1009.756287,560.395752 
	C1009.374084,562.922058 1009.016174,565.287781 1008.656494,567.650757 
	C997.111694,569.971802 995.284607,564.088806 997.970703,554.951172 
z"/>
<path fill="#F7F4E9" opacity="1.000000" stroke="none" 
	d="
M633.998535,554.091736 
	C635.667358,545.477539 637.233765,537.277466 639.038330,529.130188 
	C640.039490,524.610229 641.438538,520.178406 642.776245,515.274292 
	C644.877380,515.274292 647.636292,515.274292 651.018982,515.274292 
	C647.286743,532.830688 643.558167,550.369629 639.838257,567.868042 
	C637.084961,567.868042 634.794495,567.868042 631.700745,567.868042 
	C632.492310,563.266479 633.243958,558.897217 633.998535,554.091736 
z"/>
<path fill="#FEFDF9" opacity="1.000000" stroke="none" 
	d="
M153.994949,399.061646 
	C157.258499,395.371002 168.626556,394.668030 171.261078,397.861633 
	C174.998917,402.392700 175.730270,411.518097 170.688965,415.663727 
	C165.469864,419.955536 157.092545,418.728821 153.501083,412.857666 
	C150.886108,408.582794 151.023270,403.844513 153.994949,399.061646 
z"/>
<path fill="#F7F4E9" opacity="1.000000" stroke="none" 
	d="
M951.027466,533.022278 
	C949.001587,543.037781 947.013550,552.623230 944.992432,562.201599 
	C944.600952,564.057190 944.080566,565.885437 943.599609,567.806213 
	C940.823547,567.806213 938.047424,567.806213 935.066833,567.806213 
	C937.866394,554.579529 940.617737,541.580811 943.435364,528.269043 
	C945.893738,528.269043 948.650452,528.269043 952.112183,528.269043 
	C951.752075,529.739075 951.402893,531.164429 951.027466,533.022278 
z"/>
<path fill="#F8F4E9" opacity="1.000000" stroke="none" 
	d="
M907.669617,533.716431 
	C908.598633,527.540100 908.688293,527.488831 917.353821,528.460388 
	C914.669373,541.533447 911.995911,554.552734 909.272705,567.814453 
	C906.887756,567.814453 904.134644,567.814453 900.722046,567.814453 
	C902.984741,556.358826 905.187195,545.208191 907.669617,533.716431 
z"/>
<path fill="#FFFFFF" opacity="1.000000" stroke="none" 
	d="
M636.085205,396.489563 
	C636.439392,397.278290 636.962708,398.528198 636.964355,399.778809 
	C637.008423,432.302948 636.999939,464.827118 636.985535,497.351318 
	C636.985229,498.002960 636.807373,498.654541 636.462769,499.631775 
	C636.142212,476.405823 636.060120,452.854279 636.005005,429.302704 
	C635.979736,418.518890 636.007507,407.734924 636.085205,396.489563 
z"/>
<path fill="#FFFFFF" opacity="1.000000" stroke="none" 
	d="
M290.940979,414.498962 
	C291.259796,415.728302 291.948395,417.420776 291.952332,419.114838 
	C292.014404,445.793060 291.988434,472.471558 291.967896,499.624146 
	C291.635406,498.431000 291.044556,496.764282 291.040802,495.096283 
	C290.980347,468.385223 290.994812,441.673981 290.940979,414.498962 
z"/>
<path fill="#F8F4E9" opacity="1.000000" stroke="none" 
	d="
M916.699463,524.009644 
	C909.771729,524.012817 907.982605,521.855774 911.296997,516.836609 
	C912.493896,515.024170 916.631958,515.153992 919.427856,514.397522 
	C919.779480,514.804077 920.131104,515.210632 920.482727,515.617126 
	C919.366638,518.409851 918.250610,521.202576 916.699463,524.009644 
z"/>
<path fill="#F8F4E9" opacity="1.000000" stroke="none" 
	d="
M953.982910,519.807861 
	C952.747925,524.878662 949.117981,524.179993 944.942627,523.898926 
	C945.388794,521.010132 945.828491,518.163208 946.293091,515.154785 
	C949.197327,515.154785 951.955933,515.154785 955.170471,515.154785 
	C954.735657,516.728394 954.368408,518.057678 953.982910,519.807861 
z"/>
<path fill="#000000" opacity="1.000000" stroke="none" 
	d="
M69.274612,470.229095 
	C82.356812,458.859253 97.084625,451.703796 113.874496,449.043945 
	C119.820839,448.101929 125.882912,446.874023 131.831268,447.139648 
	C155.705017,448.205688 177.286865,455.565460 194.318192,473.021637 
	C200.767532,479.631866 206.130417,487.312805 211.867813,494.600739 
	C213.688522,496.913483 212.982895,498.920624 210.704056,500.860138 
	C188.487869,519.768555 164.613159,536.313660 139.395859,550.926453 
	C129.613144,556.595276 129.447998,556.529419 120.363693,550.727905 
	C107.611397,542.583923 94.697922,534.650635 82.358154,525.914246 
	C70.164696,517.281433 58.598896,507.762115 46.741364,498.619080 
	C52.682083,487.171478 60.383915,478.455688 69.274612,470.229095 
z"/>
<path fill="#000000" opacity="1.000000" stroke="none" 
	d="
M140.002884,580.001099 
	C159.302597,588.765625 178.219666,597.494812 196.807404,606.072021 
	C165.531326,639.748901 104.095543,647.210022 63.784676,606.195007 
	C86.124512,596.100647 108.618881,585.936462 131.654556,575.527710 
	C133.729477,576.683716 136.674850,578.324707 140.002884,580.001099 
z"/>
<path fill="#000000" opacity="1.000000" stroke="none" 
	d="
M207.240112,525.265381 
	C211.636719,521.628662 215.778381,518.252747 220.351151,514.525452 
	C224.660645,529.245300 225.196182,543.600891 222.424774,558.206970 
	C220.368744,569.042908 216.160873,578.985352 210.915588,588.582458 
	C209.735916,590.740906 208.545395,591.600037 205.933899,590.533997 
	C192.759689,585.156616 179.456192,580.094360 166.307480,574.656921 
	C159.798981,571.965271 153.526123,568.703796 148.303070,566.244629 
	C167.601669,552.853638 187.293427,539.189941 207.240112,525.265381 
z"/>
<path fill="#000000" opacity="1.000000" stroke="none" 
	d="
M57.225430,527.727173 
	C75.738739,540.622437 93.996941,553.255188 112.209633,565.856506 
	C93.781319,575.378418 74.341354,584.139709 53.865623,590.429993 
	C52.835163,590.746582 50.657749,589.598999 50.002140,588.528320 
	C38.990849,570.544861 35.403908,550.820679 37.096737,530.056641 
	C37.524799,524.806091 39.128433,519.651428 40.220226,514.314026 
	C45.802856,518.697021 51.386589,523.080933 57.225430,527.727173 
z"/>
<path fill="#000000" opacity="1.000000" stroke="none" 
	d="
M366.258453,440.001129 
	C375.855072,440.019836 382.080261,445.990417 381.875610,454.785492 
	C372.135101,454.785492 362.386078,454.785492 352.629059,454.785492 
	C351.584473,448.428192 356.276978,443.156494 366.258453,440.001129 
z"/>
<path fill="#000000" opacity="1.000000" stroke="none" 
	d="
M740.500366,472.211487 
	C745.052673,471.575348 749.218994,471.121277 754.669189,470.527283 
	C753.852234,475.283356 754.428772,480.185211 752.252808,482.768921 
	C748.446960,487.287872 742.527649,489.616119 736.335999,487.846741 
	C733.961243,487.168121 731.016602,485.094482 730.233704,482.959137 
	C728.725037,478.844330 731.551270,475.887787 735.194275,474.065887 
	C736.729126,473.298279 738.468079,472.938629 740.500366,472.211487 
z"/>
<path fill="#000000" opacity="1.000000" stroke="none" 
	d="
M998.796326,470.697754 
	C998.981323,471.764465 998.997864,472.427612 998.999268,473.090759 
	C999.020996,483.051514 995.970703,486.496765 985.812683,487.988068 
	C979.564514,488.905304 976.753174,487.539520 974.972168,483.317688 
	C973.299255,479.352112 974.645081,476.460022 978.183533,475.121155 
	C982.899902,473.336456 987.896362,472.266907 992.810852,471.044037 
	C994.693176,470.575684 996.681091,470.531586 998.796326,470.697754 
z"/>
<path fill="#000000" opacity="1.000000" stroke="none" 
	d="
M202.697205,414.795074 
	C206.363235,409.870514 212.517212,410.268524 215.766235,412.308990 
	C219.397476,414.589539 221.266129,420.253479 219.995361,424.067810 
	C218.429581,428.767761 214.542908,430.289032 210.298676,430.929504 
	C205.916367,431.590820 203.271622,428.427582 201.202972,425.316681 
	C198.881088,421.824982 199.540588,418.192932 202.697205,414.795074 
z"/>
<path fill="#000000" opacity="1.000000" stroke="none" 
	d="
M682.734985,536.041443 
	C682.632202,541.299194 681.729980,546.429749 678.741089,550.946716 
	C678.397522,545.578674 679.279053,540.537354 682.734985,536.041443 
z"/>
<path fill="#000000" opacity="1.000000" stroke="none" 
	d="
M679.092224,572.392090 
	C676.765686,573.298828 674.687744,573.898865 672.609741,574.498901 
	C672.291626,574.086731 671.973511,573.674622 671.655334,573.262512 
	C672.507568,571.980225 673.513184,569.548218 674.182434,569.637451 
	C675.978760,569.877136 677.631165,571.195435 679.092224,572.392090 
z"/>
<path fill="#000000" opacity="1.000000" stroke="none" 
	d="
M826.321777,549.270020 
	C825.211487,553.098938 824.370789,556.587097 823.530151,560.075317 
	C822.922241,559.925720 822.314331,559.776184 821.706421,559.626587 
	C823.428955,551.684875 825.151489,543.743164 826.874023,535.801453 
	C827.507019,535.919006 828.140076,536.036560 828.773071,536.154175 
	C828.045837,540.412537 827.318604,544.670959 826.321777,549.270020 
z"/>
<path fill="#000000" opacity="1.000000" stroke="none" 
	d="
M704.086548,552.076477 
	C703.373718,554.757690 702.660889,557.438904 701.948059,560.120117 
	C701.407776,559.994995 700.867493,559.869812 700.327209,559.744690 
	C698.868164,556.596680 700.526611,554.065613 703.313354,551.667969 
	C703.856812,551.800659 703.971741,551.938599 704.086548,552.076477 
z"/>
<path fill="#000000" opacity="1.000000" stroke="none" 
	d="
M703.589355,551.440918 
	C703.877014,550.900269 704.317200,550.581543 704.757385,550.262878 
	C704.719910,550.801636 704.682434,551.340393 704.365784,551.977783 
	C703.971741,551.938599 703.856812,551.800659 703.589355,551.440918 
z"/>
<path fill="#000000" opacity="1.000000" stroke="none" 
	d="
M774.664062,559.142578 
	C775.420959,555.942932 776.462463,552.991638 777.504028,550.040283 
	C779.247742,555.538818 778.453735,557.531067 774.664062,559.142578 
z"/>
<path fill="#000000" opacity="1.000000" stroke="none" 
	d="
M964.982666,536.330688 
	C964.902161,537.719666 965.067993,538.821960 964.653870,539.625366 
	C964.023132,540.849243 962.990906,541.866150 962.129150,542.970947 
	C961.754089,541.880920 961.019714,540.772949 961.073120,539.704407 
	C961.218750,536.793945 962.459656,535.740417 964.982666,536.330688 
z"/>
</svg>