<svg version="1.1" id="Layer_1" xmlns="http://www.w3.org/2000/svg" xmlns:xlink="http://www.w3.org/1999/xlink" x="0px" y="0px"
	 width="100%" viewBox="0 0 1080 1080" enable-background="new 0 0 1080 1080" xml:space="preserve">
<path fill="#000000" opacity="1.000000" stroke="none" 
	d="
M1.000000,586.000000 
	C1.000000,391.018646 1.000000,196.037292 1.000000,1.027965 
	C360.946930,1.027965 720.893860,1.027965 1080.920410,1.027965 
	C1080.920410,360.912506 1080.920410,720.825012 1080.920410,1080.868774 
	C721.121948,1080.868774 361.243805,1080.868774 1.000000,1080.868774 
	C1.000000,922.304138 1.000000,763.608032 1.235717,604.117920 
	C4.734988,608.175415 9.278635,610.778259 15.003000,612.098389 
	C24.641575,614.321411 33.944317,612.193665 43.359371,610.893188 
	C44.551121,610.728516 46.436638,610.911499 47.013321,611.677124 
	C54.468227,621.574951 64.079323,628.935303 74.643028,635.059326 
	C89.995911,643.959534 106.379692,649.755188 124.361534,649.979065 
	C133.419724,650.091858 142.480469,649.998718 151.771255,649.998718 
	C152.872681,653.578552 154.028732,657.804688 155.480484,661.926697 
	C157.035110,666.340698 160.895981,666.380188 164.561600,665.891785 
	C168.090546,665.421631 170.245346,663.043884 169.920242,659.412109 
	C169.588440,655.705444 169.081161,651.899597 167.848755,648.421326 
	C166.663834,645.077148 167.533646,644.154480 170.646698,642.883179 
	C187.380051,636.049561 202.258286,626.521973 213.615631,612.083435 
	C214.326553,611.179565 216.275009,610.801941 217.595398,610.898132 
	C225.624100,611.482544 233.701279,613.270630 241.641083,612.762634 
	C253.191986,612.023682 261.255157,607.333069 259.838501,594.258240 
	C259.346008,589.712830 257.163391,585.301636 255.439804,580.953125 
	C253.904343,577.079285 250.397781,576.267700 246.724884,576.709351 
	C242.554413,577.210876 240.629456,580.260254 241.131577,584.043701 
	C241.652252,587.967041 243.211792,591.752441 244.488373,596.194580 
	C238.274658,596.194580 231.988708,596.194580 225.133591,596.194580 
	C235.128098,578.849060 239.411285,560.865540 239.902054,542.021240 
	C240.227661,529.517822 238.171875,517.204163 233.897064,505.403595 
	C232.866348,502.558289 233.619171,501.083496 235.379089,498.968597 
	C240.988525,492.227783 246.669769,485.584534 249.187469,476.748962 
	C252.781158,464.137299 248.327484,457.016602 236.983719,453.509155 
	C234.357239,452.697052 231.547318,452.059204 228.822769,452.062805 
	C221.073334,452.072968 217.684647,458.368744 220.184006,464.109375 
	C221.725891,467.650879 225.013123,469.247528 229.137756,469.084961 
	C230.962616,469.013031 232.823776,469.861938 234.668457,470.292816 
	C233.962463,472.177063 233.539047,474.238678 232.491119,475.908325 
	C230.358658,479.305969 227.889191,482.492065 225.331329,486.084473 
	C218.349335,473.439911 209.063614,463.354675 198.173355,454.655396 
	C179.839417,440.009979 158.922134,432.093079 135.535950,431.094574 
	C127.972473,430.771667 120.345909,431.504578 112.772423,432.075714 
	C110.247597,432.266113 109.445549,431.549408 108.947479,429.218536 
	C107.998535,424.777588 107.427963,420.003784 105.280396,416.161896 
	C103.909264,413.709076 99.979767,411.335693 97.213470,411.354095 
	C93.727150,411.377289 90.307281,414.074951 91.042694,418.704773 
	C91.982216,424.619598 93.221260,430.486847 94.376869,436.616760 
	C69.331352,445.867767 49.136471,461.836823 35.264465,486.047455 
	C33.216499,483.195374 31.258842,480.602356 29.442291,477.914001 
	C24.238297,470.212341 24.487152,469.793671 33.637196,468.965027 
	C37.346828,468.629089 40.415443,466.893646 40.915310,462.906708 
	C41.443626,458.692932 41.254528,454.139435 35.877468,453.161102 
	C32.317871,452.513428 28.510992,452.655426 24.883366,453.059418 
	C14.583668,454.206421 8.627309,463.553223 10.686000,473.520172 
	C12.811958,483.812744 19.239122,491.271729 25.452688,499.036285 
	C26.389980,500.207520 27.353331,502.037231 27.121908,503.354584 
	C25.575222,512.158752 23.583754,520.883850 21.972404,529.677795 
	C19.335369,544.069519 21.487309,558.180603 25.562822,571.951843 
	C27.946230,580.005432 31.531910,587.703186 34.658195,595.771240 
	C28.518162,596.111450 22.349087,598.521545 15.745339,595.793884 
	C16.786472,593.593567 17.593121,591.827942 18.450821,590.087524 
	C21.112276,584.686829 19.933062,579.545288 15.477160,577.211609 
	C10.996827,574.865112 7.134810,576.850891 3.948228,582.897034 
	C3.307948,584.111877 2.000075,584.974792 1.000000,586.000000 
M696.697571,535.352051 
	C696.460571,537.057495 696.223633,538.762939 695.948242,540.744629 
	C699.327515,540.744629 702.073303,540.744629 704.263855,540.744629 
	C705.106079,538.519836 705.786255,536.723022 706.466431,534.926208 
	C706.934448,535.140869 707.402405,535.355469 707.870361,535.570068 
	C707.499756,538.763916 707.391602,541.709656 703.355957,543.426575 
	C695.321045,546.844849 690.789490,552.980530 690.990356,562.085938 
	C691.114868,567.730408 694.127319,569.515381 699.455444,567.039856 
	C700.137573,566.722900 700.967224,566.208862 701.586853,566.361450 
	C704.192993,567.003174 706.745300,567.863403 709.361633,568.657043 
	C711.731995,557.691284 714.032715,547.877869 715.896179,537.982117 
	C716.558960,534.462830 716.579651,530.697266 712.721680,528.284485 
	C709.238953,526.106384 706.084900,526.888794 703.139893,529.030151 
	C701.262634,530.395081 699.766357,532.274536 698.015808,533.829346 
	C697.540405,534.251587 696.761475,534.332153 696.022034,533.806030 
	C696.372131,531.630432 696.722168,529.454895 696.986023,527.815247 
	C693.817505,528.128540 690.421448,529.543335 688.386047,528.442444 
	C684.060852,526.103088 681.109497,527.116272 677.520020,529.670471 
	C670.851929,534.415405 671.681091,541.926880 670.138672,548.501770 
	C669.627625,550.680115 670.733643,553.229187 671.040710,555.616394 
	C671.094604,556.035156 671.000366,556.718872 670.725830,556.897278 
	C666.448730,559.676941 664.227722,563.038513 667.699768,567.806091 
	C662.011841,571.519165 661.176941,577.059814 665.555054,579.815979 
	C670.134827,582.699097 681.703674,581.096191 685.445435,577.060181 
	C691.222046,570.829224 689.745911,564.573364 681.917297,561.919922 
	C680.132935,561.315125 678.427246,560.478027 676.209229,559.548279 
	C685.697754,557.270813 689.133789,553.181335 690.071228,544.462585 
	C690.514038,540.344299 690.924744,535.844727 696.697571,535.352051 
M290.987854,414.998627 
	C290.991882,441.663666 290.978821,468.328766 291.040070,494.993683 
	C291.043976,496.699860 291.623566,498.404755 292.038971,500.963287 
	C298.923126,501.456757 305.807281,501.950195 313.265778,502.484833 
	C313.265778,472.277130 313.265778,443.240479 313.265778,413.825806 
	C323.719818,413.825806 333.648865,413.825806 343.665070,413.825806 
	C343.665070,408.051788 343.665070,402.669250 343.665070,397.006104 
	C316.715790,397.006104 290.095795,396.986023 263.476166,397.077667 
	C262.382446,397.081451 260.370514,398.100464 260.347870,398.704956 
	C260.181427,403.148560 260.227539,407.626678 260.693848,412.042480 
	C260.775818,412.818573 263.132233,413.884644 264.457855,413.913422 
	C273.278900,414.104828 282.105286,414.050629 290.987854,414.998627 
M636.406921,500.732025 
	C642.486755,501.314941 648.566589,501.897858 655.002197,502.514893 
	C655.002197,485.023224 654.953674,468.719910 655.070251,452.417755 
	C655.083252,450.598572 655.461060,447.932373 656.656616,447.130371 
	C660.258850,444.714111 664.194031,442.566376 668.292725,441.183838 
	C672.171997,439.875336 679.102600,442.279297 680.105591,447.489868 
	C680.747986,450.827209 681.826782,454.160645 681.898438,457.513123 
	C682.133179,468.502319 681.997253,479.499451 682.002625,490.493530 
	C682.004517,494.247772 682.002991,498.002045 682.002991,501.720642 
	C688.641357,501.720642 694.571899,501.720642 701.001099,501.720642 
	C701.001099,490.851166 701.128479,480.233826 700.960571,469.621155 
	C700.827209,461.195404 700.816040,452.721191 699.879700,444.366089 
	C698.615601,433.086609 685.640625,423.171387 674.747742,425.207642 
	C668.055359,426.458649 661.622559,429.098816 654.902344,431.167847 
	C654.902344,419.561584 654.902344,407.000000 654.902344,394.328979 
	C648.395813,394.328979 642.346680,394.328979 636.142090,394.328979 
	C636.142090,429.443573 636.142090,464.230011 636.056458,499.492798 
	C636.056458,499.492798 636.202332,499.954315 636.406921,500.732025 
M900.557068,431.992096 
	C899.261658,433.625061 897.966187,435.258057 896.215027,437.465485 
	C893.006714,429.215790 886.812561,425.253876 879.021973,425.186737 
	C871.586487,425.122650 864.616882,427.785004 860.298706,433.029022 
	C858.438599,430.840851 857.051147,427.627045 855.137329,427.275085 
	C850.680176,426.455475 845.969604,427.013794 841.013123,427.013794 
	C841.013123,451.232422 840.960693,474.862244 841.166626,498.489838 
	C841.177063,499.680634 843.308960,501.693542 844.645142,501.870087 
	C848.248352,502.346161 851.971924,501.819397 855.617065,502.095276 
	C859.686829,502.403259 861.167419,501.080658 861.098816,496.780792 
	C860.857056,481.621124 860.933838,466.454498 861.093628,451.292694 
	C861.113831,449.369476 861.783325,446.808716 863.115112,445.663177 
	C867.297363,442.066101 872.131897,439.252533 877.859619,442.099579 
	C882.700317,444.505615 883.947327,449.164093 883.973816,454.127502 
	C884.048401,468.124207 883.999451,482.121643 883.999268,496.118774 
	C883.999207,497.901245 883.999268,499.683716 883.999268,501.700439 
	C890.623108,501.700439 896.662231,501.700439 903.001587,501.700439 
	C903.001587,496.226013 902.899292,491.082001 903.022522,485.943390 
	C903.296570,474.518372 903.530701,463.088684 904.083496,451.675507 
	C904.396912,445.204865 909.266846,440.691589 915.237122,441.044891 
	C922.248108,441.459778 926.265320,446.194550 926.109253,452.813934 
	C925.759827,467.635956 925.912048,482.473206 926.130432,497.300262 
	C926.153625,498.875336 927.867493,501.680542 928.975464,501.772827 
	C934.530518,502.235443 940.144958,501.984833 945.567200,501.984833 
	C945.795288,500.996918 945.931030,500.682037 945.931702,500.366852 
	C945.964600,484.870819 946.127563,469.372772 945.914673,453.879944 
	C945.857178,449.695892 945.093506,445.395477 943.882385,441.381256 
	C941.797180,434.469421 937.341980,429.238953 930.282471,427.068481 
	C919.941101,423.888977 910.037842,424.766754 900.557068,431.992096 
M566.992798,404.459656 
	C564.509155,408.614288 561.301147,412.505585 559.677246,416.972748 
	C554.729858,430.582947 560.264099,447.393097 575.865540,452.996948 
	C583.655273,455.794891 591.441711,458.614899 599.133118,461.668060 
	C602.941162,463.179626 604.985840,466.162384 605.048279,470.490448 
	C605.177612,479.445679 600.196777,484.489380 590.865234,485.038788 
	C583.022583,485.500549 576.608337,482.266541 570.451904,477.992920 
	C566.294373,475.106873 561.736267,474.934570 559.796814,477.829620 
	C557.465210,481.309906 555.607910,485.107849 553.550415,488.758942 
	C556.000488,490.757172 557.864563,492.608765 560.029785,493.987213 
	C570.677246,500.765778 582.024841,503.677582 594.893677,502.156189 
	C616.891113,499.555573 628.796387,481.741547 624.259949,459.838104 
	C622.222229,449.999146 614.251526,445.406158 605.566162,441.985962 
	C598.140869,439.061951 590.649109,436.269165 583.393127,432.965088 
	C578.263123,430.629089 577.526245,427.016571 578.714050,421.596863 
	C580.244202,414.615173 590.558411,411.672272 596.583618,413.417999 
	C601.198303,414.755005 605.558411,417.019592 609.959351,419.030212 
	C613.814148,420.791321 616.860352,420.447906 618.966125,416.390808 
	C619.866760,414.655640 620.891907,412.979156 621.947510,411.331757 
	C624.012207,408.109558 622.791565,405.654877 620.124878,403.636963 
	C611.959167,397.458008 602.245789,395.547363 592.500916,395.371613 
	C583.458557,395.208527 574.823853,398.110992 566.992798,404.459656 
M480.000336,408.506348 
	C480.000336,439.589722 480.000336,470.673126 480.000336,501.982117 
	C485.381165,501.982117 490.050934,501.736084 494.681793,502.055023 
	C498.863007,502.343048 500.143921,500.878387 500.084412,496.691315 
	C499.871368,481.695160 499.918030,466.692261 500.153107,451.696411 
	C500.184296,449.708405 501.388000,447.170746 502.900421,445.906372 
	C505.199005,443.984650 508.118347,442.583344 510.994507,441.617493 
	C518.697327,439.030792 525.741638,444.094055 525.978943,452.192169 
	C526.091187,456.022034 525.996704,459.857941 525.996643,463.691132 
	C525.996460,476.306702 525.996643,488.922241 525.996643,501.981628 
	C531.452393,501.981628 536.419006,501.824158 541.369873,502.035858 
	C544.781372,502.181793 546.147705,501.092316 546.050903,497.505615 
	C545.594177,480.580536 545.934753,463.609863 544.806091,446.734650 
	C543.906982,433.291290 532.115356,423.567169 517.226868,426.000641 
	C511.480225,426.939911 505.935760,429.116333 499.862915,430.853912 
	C499.862915,419.146576 499.862915,406.634949 499.862915,394.307068 
	C492.922516,394.307068 486.655273,394.307068 480.000336,394.307068 
	C480.000336,398.906799 480.000336,403.208618 480.000336,408.506348 
M354.956299,479.435852 
	C353.447174,475.523438 351.938049,471.610992 350.160187,467.001892 
	C363.777405,467.001892 375.915436,467.140320 388.048920,466.963806 
	C400.724335,466.779449 400.546082,470.021088 399.814911,454.701538 
	C399.303925,443.994537 394.578705,435.076569 384.397980,429.680603 
	C377.326508,425.932587 369.997772,425.334015 362.294922,425.980652 
	C350.694244,426.954529 341.849213,432.432800 336.240509,442.520752 
	C331.701691,450.684357 330.871826,459.568054 331.857483,468.917969 
	C333.055664,480.283447 337.121826,489.785980 346.722443,496.308289 
	C354.713867,501.737366 363.603424,502.967041 373.233673,502.242218 
	C381.885132,501.591034 389.581390,499.288574 396.273712,493.886963 
	C397.522766,492.878815 398.925629,490.981689 398.839203,489.582428 
	C398.432556,482.998383 390.060089,479.005127 384.277344,482.224640 
	C381.189148,483.944000 377.970520,485.581635 374.616119,486.638214 
	C367.868744,488.763519 359.054626,485.523071 354.956299,479.435852 
M742.485229,441.000305 
	C751.360657,441.488861 756.188965,447.144806 753.216492,457.733582 
	C742.266418,458.551422 731.354187,459.378174 721.475830,464.868134 
	C712.233643,470.004486 708.105774,481.066498 712.017517,490.709747 
	C715.674133,499.724152 727.029053,503.943420 736.147095,502.562042 
	C743.730896,501.413025 750.578735,498.989960 756.377258,493.637604 
	C758.746826,501.090424 760.345093,501.910950 769.188782,502.023438 
	C772.859070,502.070129 774.205078,500.978455 774.092285,497.204865 
	C773.606750,480.960968 773.658020,464.695343 772.879761,448.468018 
	C772.420471,438.891083 765.975830,430.376373 756.757568,427.040527 
	C749.941040,424.573822 742.980286,424.492340 735.924744,425.998444 
	C727.444763,427.808563 719.710999,430.914124 713.976257,437.695190 
	C718.987671,448.455292 721.789917,449.312622 731.947021,444.112793 
	C734.926880,442.587311 738.393494,442.012665 742.485229,441.000305 
M956.988220,474.724060 
	C952.797791,486.046112 958.373718,498.835297 968.809448,501.487274 
	C976.781433,503.513184 984.282654,502.993134 991.590149,499.611755 
	C994.941833,498.060852 997.994690,495.864044 1001.231628,493.931183 
	C1003.758423,501.602234 1007.418701,503.001617 1017.000000,501.209961 
	C1017.000000,484.962921 1016.810059,468.667175 1017.054749,452.377899 
	C1017.287964,436.852753 1006.316650,425.251129 990.003967,425.058502 
	C978.175598,424.918823 967.744812,428.944061 958.797546,437.184540 
	C959.609680,439.015747 960.334106,440.821777 961.195862,442.559753 
	C963.742798,447.696808 968.604736,448.926331 973.728210,445.872589 
	C975.691284,444.702545 977.733154,443.641937 979.814636,442.697876 
	C984.840088,440.418549 989.955444,439.847076 994.667297,443.266876 
	C999.668579,446.896820 999.322205,452.208893 998.745483,457.541656 
	C994.115723,458.045624 989.702454,458.322754 985.361450,459.038452 
	C974.305542,460.861115 963.485779,463.265747 956.988220,474.724060 
M463.907562,430.398987 
	C455.907715,426.276550 447.554199,424.986694 438.513947,425.867096 
	C427.906006,426.900208 419.810669,431.692230 413.993622,440.247650 
	C407.746460,449.435699 406.853882,459.963257 408.054321,470.655029 
	C409.411163,482.739777 414.430084,492.811005 425.574036,498.851685 
	C432.875946,502.809845 440.725647,503.010010 448.835571,502.077698 
	C457.219727,501.113861 464.228577,497.724152 469.856201,491.586578 
	C473.343231,487.783569 468.139679,486.803162 467.144104,484.448853 
	C465.062134,479.525360 461.362549,480.473663 457.679260,482.160736 
	C456.214661,482.831543 454.981659,483.993408 453.601318,484.865356 
	C447.492737,488.724152 439.334106,487.807587 434.264252,482.718323 
	C427.334045,475.761536 425.306274,459.840302 430.304443,450.394989 
	C431.502472,448.131073 432.862640,445.647461 434.824249,444.151154 
	C440.398590,439.899139 446.683594,440.047882 452.981201,442.527313 
	C454.638977,443.179932 456.124451,444.264618 457.702759,445.125793 
	C461.711487,447.312988 464.812439,445.862854 466.876862,442.313354 
	C468.612366,439.329376 472.970856,435.922058 466.582153,432.995087 
	C465.730255,432.604797 465.145996,431.630280 463.907562,430.398987 
M808.020325,477.500000 
	C808.013855,471.174622 807.692017,464.829742 808.081970,458.528870 
	C808.552734,450.920135 814.278015,443.608948 822.867859,443.985840 
	C825.702576,444.110229 829.384033,445.146393 831.150452,443.784302 
	C832.954346,442.393402 833.066650,438.602173 833.572083,435.799194 
	C833.979004,433.542267 833.999573,431.186829 833.909302,428.886139 
	C833.880737,428.159576 833.034180,426.962341 832.401978,426.845276 
	C828.754150,426.169983 824.505188,424.358307 821.498108,425.550507 
	C815.842407,427.792786 810.894165,431.819641 806.074402,434.839661 
	C805.330200,426.502808 804.991516,427.185486 795.861877,425.976349 
	C795.207520,425.889679 794.521790,426.039490 793.867493,425.952606 
	C789.320496,425.348846 787.830200,427.154724 787.895264,431.840790 
	C788.151917,450.314240 788.000549,468.793365 788.000488,487.270386 
	C788.000488,502.585632 787.997925,502.478485 803.367432,502.108063 
	C807.187500,502.015991 808.208008,500.527069 808.080994,496.974792 
	C807.861023,490.823669 808.020203,484.658966 808.020325,477.500000 
M217.025009,395.991882 
	C212.859116,395.994751 208.666061,395.709869 204.536713,396.099792 
	C201.695038,396.368073 198.461426,396.894806 196.232620,398.475708 
	C186.969498,405.046112 183.325073,413.909485 184.819687,425.524658 
	C186.685089,440.021515 201.375732,449.518829 216.150650,446.825012 
	C226.708145,444.900085 235.365616,434.362366 236.035843,424.012970 
	C236.960205,409.739319 229.294067,399.021790 217.025009,395.991882 
M888.720398,568.016113 
	C890.676880,568.016113 892.633362,568.016113 894.442749,568.016113 
	C895.788635,560.808105 896.587280,553.972778 898.450134,547.440979 
	C899.721436,542.983276 899.337158,537.701599 904.439941,534.471619 
	C906.056519,533.448486 908.445679,528.643250 902.936462,527.207397 
	C903.733215,525.445557 904.297363,522.781128 905.068970,522.719604 
	C910.473938,522.288879 908.470764,517.974060 909.865295,515.257690 
	C900.993835,514.686279 896.487915,516.181763 895.540833,522.514038 
	C894.504761,529.441895 890.849670,528.062622 886.179810,527.741577 
	C887.210571,525.830627 887.895996,523.047119 888.916687,522.918152 
	C894.647766,522.194092 892.434631,518.352173 892.815186,515.347290 
	C883.808105,514.534485 881.843384,515.858765 879.021179,523.835754 
	C878.488342,525.342041 877.353394,527.705017 876.343018,527.787170 
	C871.990662,528.141052 875.296509,532.280334 873.151062,533.492432 
	C873.958069,534.784363 874.765137,536.076294 875.735474,537.629700 
	C873.851440,547.197388 871.875549,557.231873 869.901978,567.254517 
	C877.279968,568.972290 877.791504,568.824646 879.305847,562.255066 
	C881.059692,554.646118 882.455933,546.955017 884.034363,539.305115 
	C884.670593,536.221497 887.137146,534.769531 889.631226,535.604431 
	C890.868469,536.018677 892.105347,539.355774 891.765503,541.055237 
	C890.270325,548.531006 888.072327,555.864075 886.452087,563.319031 
	C886.148682,564.714844 887.323120,566.431824 888.720398,568.016113 
M841.551514,518.959473 
	C841.639099,517.738037 841.726685,516.516602 841.808838,515.371094 
	C838.619324,515.371094 835.889160,515.371094 833.755859,515.371094 
	C832.482910,520.197388 831.339355,524.532837 830.133118,529.106140 
	C825.073059,525.799927 821.773438,527.214783 819.713989,531.784851 
	C818.679626,534.080017 818.020325,536.592712 817.526001,539.073730 
	C815.934326,547.061340 814.392212,555.062378 813.057983,563.095886 
	C812.572144,566.020874 814.165527,567.902222 817.252258,567.968994 
	C821.632446,568.063843 826.016296,567.993042 830.816650,567.993042 
	C834.273438,551.767334 837.689758,535.731812 841.551514,518.959473 
M626.992554,531.237732 
	C627.133850,527.734009 626.066101,523.728882 632.079895,523.915588 
	C639.636047,524.150024 639.759033,523.727051 638.472290,515.239441 
	C632.755188,515.239441 627.001465,515.239441 621.046997,515.239441 
	C617.323242,532.726685 613.636047,550.042175 609.872681,567.715454 
	C616.403625,567.715454 622.609253,567.715454 629.077271,567.715454 
	C629.445801,564.825684 629.786621,562.152954 630.202454,558.892700 
	C626.696533,558.892700 623.945984,558.892700 620.319153,558.892700 
	C621.305603,555.573669 622.552979,552.993469 622.742920,550.337646 
	C622.993774,546.831177 624.448853,545.776550 627.763977,545.865967 
	C628.812256,545.894165 630.428650,544.652405 630.862671,543.608398 
	C631.813904,541.320068 632.175232,538.786499 632.814209,536.204590 
	C630.380371,536.029785 628.276428,535.878723 625.758362,535.697876 
	C626.249084,534.211182 626.596008,533.160034 626.992554,531.237732 
M797.431580,563.091064 
	C798.492981,558.338135 799.427246,553.552429 800.640991,548.838745 
	C803.596985,537.359497 803.649109,537.372925 805.683289,536.468079 
	C803.582275,546.847229 801.486755,557.199646 799.339294,567.808472 
	C803.029541,567.808472 805.321899,567.808472 807.735046,567.808472 
	C809.853516,557.942871 811.957458,548.256714 813.996948,538.556946 
	C814.430542,536.494934 814.924194,534.375977 814.871704,532.296387 
	C814.777527,528.566833 811.897522,526.901367 808.291748,527.841492 
	C806.628601,528.275085 804.757507,528.140747 803.009216,527.970703 
	C799.235962,527.603577 796.231628,527.935608 795.584167,532.701904 
	C795.040771,536.701355 793.978577,540.631897 793.113464,544.585815 
	C791.446167,552.205933 789.755920,559.821045 788.018127,567.696594 
	C791.073425,567.696594 793.957397,567.696594 796.882141,567.696594 
	C796.959106,566.214661 797.019470,565.052429 797.431580,563.091064 
M995.935486,540.216125 
	C996.297302,537.461914 997.428406,534.505493 996.774475,532.018311 
	C996.262512,530.071045 992.447388,527.040894 991.974426,527.351013 
	C988.876282,529.382202 985.835327,528.116272 982.846130,527.935364 
	C980.069336,527.767273 978.534546,528.655457 977.988098,531.435242 
	C977.050659,536.204163 976.019470,540.955566 974.964111,545.700256 
	C973.347595,552.968079 971.677307,560.223999 969.965332,567.769348 
	C972.950867,567.769348 975.702759,567.769348 978.165283,567.769348 
	C982.070618,557.295410 981.854431,545.946472 986.457642,535.982971 
	C986.872864,536.088379 987.288147,536.193787 987.703369,536.299133 
	C985.603943,546.739685 983.504456,557.180176 981.371033,567.789551 
	C985.094604,567.789551 987.386169,567.789551 989.734558,567.789551 
	C991.704163,558.716614 993.629150,549.849426 995.935486,540.216125 
M737.276184,527.093933 
	C733.731506,526.697327 730.793091,529.868286 726.748596,528.177368 
	C723.252441,526.715698 721.515015,528.923889 720.787170,532.924622 
	C718.930115,543.131531 716.324707,553.201111 714.115173,563.346619 
	C713.817383,564.713989 714.074219,566.202087 714.074219,567.688293 
	C717.304260,567.688293 720.032104,567.688293 722.128845,567.688293 
	C724.501831,556.801453 726.775818,546.368652 729.049805,535.935791 
	C729.717407,536.076172 730.384949,536.216614 731.052551,536.356995 
	C728.987000,546.703552 726.921509,557.050171 724.854370,567.404785 
	C732.971436,568.807922 733.717651,568.105042 735.030151,560.283997 
	C736.266296,552.918091 737.694702,545.570557 739.426331,538.307373 
	C740.360413,534.389343 740.332031,530.906250 737.276184,527.093933 
M865.838379,527.389343 
	C859.530701,526.672119 855.041870,528.746643 853.118958,534.545471 
	C850.636963,542.030334 848.692078,549.732666 847.129517,557.465393 
	C846.412598,561.013367 845.979187,565.820740 850.812500,567.007690 
	C853.998596,567.789978 857.996826,567.487305 861.020386,566.216614 
	C866.264648,564.012634 866.489258,558.312317 868.362427,553.050476 
	C864.099426,553.660828 858.633423,550.256775 858.798157,558.136292 
	C858.809814,558.694397 857.474854,559.280579 856.766113,559.853699 
	C856.403992,559.090027 855.724060,558.324402 855.728882,557.563049 
	C855.776917,550.064697 855.822205,549.777893 863.541016,550.127197 
	C867.623047,550.311951 869.301331,548.524780 869.875977,545.068298 
	C870.411987,541.844177 870.558594,538.557190 871.019958,535.318298 
	C871.558655,531.535828 870.202881,529.020874 865.838379,527.389343 
M661.452393,550.009705 
	C663.100159,550.009705 664.747925,550.009705 667.612122,550.009705 
	C668.083191,544.215393 668.659363,538.611633 668.894226,532.993652 
	C668.941528,531.862488 667.957092,530.356262 666.999207,529.570068 
	C661.674500,525.199768 653.194885,527.881287 651.043152,534.940491 
	C648.685608,542.674622 646.699097,550.554932 645.151001,558.488647 
	C644.396179,562.356995 646.008118,566.349915 650.000366,567.807007 
	C658.333008,570.848145 667.251587,562.204956 665.427734,553.755310 
	C658.205017,549.504150 657.712158,556.865417 655.039856,560.565186 
	C654.622620,560.245056 654.205322,559.924866 653.788086,559.604736 
	C654.210327,556.484924 654.632568,553.365051 655.086670,550.009766 
	C657.254456,550.009766 658.898987,550.009766 661.452393,550.009705 
M789.495728,530.125000 
	C783.103516,523.013794 770.659973,530.315125 770.395264,540.469360 
	C775.991150,543.038025 779.009033,539.632690 781.369507,534.710693 
	C783.779785,541.559509 778.921875,542.967590 775.309204,544.801025 
	C770.100830,547.444153 764.415771,556.585571 765.079956,562.067261 
	C765.761475,567.692200 767.844910,568.937927 773.361572,567.268433 
	C774.240234,567.002441 775.422974,567.431030 776.376892,567.779846 
	C779.760681,569.017334 784.468201,567.889160 784.973450,565.584045 
	C786.986389,556.401062 789.123657,547.240173 790.844116,538.002014 
	C791.266174,535.736145 790.285217,533.208984 789.495728,530.125000 
M962.111877,566.971863 
	C968.112610,564.417603 969.093201,559.059021 970.053772,553.876953 
	C962.811218,549.966614 961.146729,555.671936 958.789490,560.328674 
	C958.204529,558.799561 958.047363,557.857666 958.026306,556.912720 
	C957.876953,550.206482 958.073975,550.017578 964.908386,550.010620 
	C966.866455,550.008606 968.824524,550.010254 970.607971,550.010254 
	C971.423889,547.123779 972.650452,544.763367 972.633118,542.412231 
	C972.602112,538.187927 973.254883,532.877014 971.047424,529.985779 
	C967.013000,524.701721 957.222717,527.726990 955.086609,534.531921 
	C952.903320,541.487183 951.543152,548.696472 949.594849,555.731445 
	C948.496765,559.696228 948.248047,563.852722 951.851074,565.987671 
	C954.370117,567.480286 958.133850,566.872375 962.111877,566.971863 
M915.001404,559.462402 
	C914.664612,563.332520 915.080017,567.078552 919.665405,567.915649 
	C930.264893,569.850647 935.450928,561.914551 934.309021,552.537964 
	C926.820679,549.236755 925.885681,555.411011 924.124390,560.421082 
	C923.676941,560.135315 923.229431,559.849548 922.781921,559.563782 
	C924.625549,551.472412 926.469238,543.381042 928.312866,535.289673 
	C928.880310,535.399109 929.447754,535.508606 930.015198,535.618042 
	C929.732117,537.907410 929.449097,540.196777 929.087952,543.117432 
	C931.755371,542.866821 935.981323,543.387451 936.491882,542.246033 
	C937.902649,539.092407 938.562744,535.118164 938.024170,531.704346 
	C937.401001,527.754089 933.642151,526.711792 929.884644,527.029907 
	C924.485413,527.487061 920.736389,531.061707 919.407471,535.584290 
	C917.218628,543.033630 916.398743,550.885193 915.001404,559.462402 
M741.000671,557.591919 
	C741.000793,558.589417 741.000183,559.586853 741.001282,560.584351 
	C741.008606,567.146362 741.857300,568.001648 748.355164,567.997559 
	C749.337769,567.996948 750.320435,567.997559 752.135498,567.997559 
	C752.135498,565.220947 752.375732,562.641663 752.042542,560.138794 
	C751.852356,558.710449 749.982605,557.307922 750.147583,556.063171 
	C751.020874,549.473755 752.299927,542.937988 753.488647,536.093811 
	C759.906189,537.425049 758.890564,532.282776 760.127258,528.616394 
	C758.606689,528.148254 757.308594,527.748596 755.789062,527.280823 
	C756.198975,524.128479 756.568115,521.289368 756.968811,518.207214 
	C754.285828,518.207214 752.003357,518.207214 749.718323,518.218384 
	C746.953735,521.335327 749.091614,527.506592 743.203003,528.677246 
	C744.220520,531.077637 739.332092,534.029175 743.911377,536.188599 
	C744.294495,536.369263 744.348633,537.696472 744.223572,538.434814 
	C743.193665,544.518799 742.085266,550.589539 741.000671,557.591919 
M999.022400,534.361511 
	C1002.282959,535.972717 1001.384827,538.813782 1000.847473,541.312561 
	C999.722290,546.545227 997.945557,551.664795 997.181824,556.938782 
	C996.666077,560.500305 995.519287,565.106506 999.911926,567.155212 
	C1002.381104,568.306763 1005.584717,567.883423 1008.588379,568.182556 
	C1008.989319,565.187439 1009.304016,562.836670 1009.662964,560.154846 
	C1005.122437,560.859558 1005.615356,557.649414 1006.136902,555.128113 
	C1007.447571,548.792053 1009.127441,542.532410 1010.682068,536.148376 
	C1016.681396,536.750427 1015.883179,532.012390 1017.058594,528.436768 
	C1015.146667,528.075500 1013.627197,527.788330 1012.283630,527.534485 
	C1012.926086,524.251892 1013.497925,521.330200 1014.119995,518.151733 
	C1011.136780,518.151733 1008.843872,518.151733 1007.000488,518.151733 
	C1004.235046,523.485046 1001.628906,528.511230 999.022400,534.361511 
M637.913391,538.187500 
	C635.723389,547.918335 633.533386,557.649231 631.243164,567.825562 
	C634.852051,567.825562 637.131958,567.825562 639.788269,567.825562 
	C643.526367,550.357727 647.254272,532.937744 651.010437,515.385498 
	C647.873474,515.385498 645.005371,515.385498 642.290649,515.385498 
	C640.804626,522.964966 639.396545,530.147095 637.913391,538.187500 
M173.999420,406.548889 
	C174.064713,401.808624 173.010956,397.426147 167.828293,396.124695 
	C159.609818,394.060944 154.712387,395.947906 152.707031,401.855896 
	C151.114944,406.546417 151.313187,411.084076 155.372147,414.971802 
	C158.945435,418.394348 162.852615,418.780304 167.155121,417.321564 
	C171.801575,415.746155 174.400406,412.569519 173.999420,406.548889 
M951.624451,531.930603 
	C951.701965,530.713928 951.779480,529.497192 951.853699,528.332031 
	C948.636780,528.332031 945.894775,528.332031 943.404480,528.332031 
	C940.597900,541.651123 937.868103,554.605530 935.081299,567.830811 
	C938.159668,567.830811 940.776917,567.830811 943.657654,567.830811 
	C946.151855,556.063049 948.635437,544.345337 951.624451,531.930603 
M910.994446,558.589478 
	C913.130066,548.615845 915.265686,538.642273 917.407227,528.641235 
	C909.252563,527.316650 909.103149,527.281616 907.547058,533.916321 
	C905.243164,543.739624 903.131775,553.609131 901.060730,563.484619 
	C900.778625,564.829834 901.202087,566.323120 901.290161,567.619812 
	C904.417908,567.619812 907.136353,567.619812 909.513123,567.619812 
	C910.016418,564.604858 910.446655,562.027954 910.994446,558.589478 
M919.950867,516.408997 
	C917.439941,516.034851 914.506775,514.719177 912.555847,515.593933 
	C911.080566,516.255493 910.409973,519.704041 910.358582,521.934753 
	C910.343445,522.590759 913.714966,523.952087 915.439087,523.812622 
	C916.706421,523.710083 917.982605,521.807312 918.941040,520.480164 
	C919.561157,519.621460 919.615112,518.353882 919.950867,516.408997 
M951.029846,523.959778 
	C952.571045,521.269409 954.112183,518.579041 956.030396,515.230469 
	C951.971069,515.230469 949.198669,515.230469 946.462158,515.230469 
	C945.165527,523.813110 945.165527,523.813110 951.029846,523.959778 
z"/>
<path fill="#0A1FEE" opacity="1.000000" stroke="none" 
	d="
M1.000000,586.467957 
	C2.000075,584.974792 3.307948,584.111877 3.948228,582.897034 
	C7.134810,576.850891 10.996827,574.865112 15.477160,577.211609 
	C19.933062,579.545288 21.112276,584.686829 18.450821,590.087524 
	C17.593121,591.827942 16.786472,593.593567 15.745339,595.793884 
	C22.349087,598.521545 28.518162,596.111450 34.658195,595.771240 
	C31.531910,587.703186 27.946230,580.005432 25.562822,571.951843 
	C21.487309,558.180603 19.335369,544.069519 21.972404,529.677795 
	C23.583754,520.883850 25.575222,512.158752 27.121908,503.354584 
	C27.353331,502.037231 26.389980,500.207520 25.452688,499.036285 
	C19.239122,491.271729 12.811958,483.812744 10.686000,473.520172 
	C8.627309,463.553223 14.583668,454.206421 24.883366,453.059418 
	C28.510992,452.655426 32.317871,452.513428 35.877468,453.161102 
	C41.254528,454.139435 41.443626,458.692932 40.915310,462.906708 
	C40.415443,466.893646 37.346828,468.629089 33.637196,468.965027 
	C24.487152,469.793671 24.238297,470.212341 29.442291,477.914001 
	C31.258842,480.602356 33.216499,483.195374 35.264465,486.047455 
	C49.136471,461.836823 69.331352,445.867767 94.376869,436.616760 
	C93.221260,430.486847 91.982216,424.619598 91.042694,418.704773 
	C90.307281,414.074951 93.727150,411.377289 97.213470,411.354095 
	C99.979767,411.335693 103.909264,413.709076 105.280396,416.161896 
	C107.427963,420.003784 107.998535,424.777588 108.947479,429.218536 
	C109.445549,431.549408 110.247597,432.266113 112.772423,432.075714 
	C120.345909,431.504578 127.972473,430.771667 135.535950,431.094574 
	C158.922134,432.093079 179.839417,440.009979 198.173355,454.655396 
	C209.063614,463.354675 218.349335,473.439911 225.331329,486.084473 
	C227.889191,482.492065 230.358658,479.305969 232.491119,475.908325 
	C233.539047,474.238678 233.962463,472.177063 234.668457,470.292816 
	C232.823776,469.861938 230.962616,469.013031 229.137756,469.084961 
	C225.013123,469.247528 221.725891,467.650879 220.184006,464.109375 
	C217.684647,458.368744 221.073334,452.072968 228.822769,452.062805 
	C231.547318,452.059204 234.357239,452.697052 236.983719,453.509155 
	C248.327484,457.016602 252.781158,464.137299 249.187469,476.748962 
	C246.669769,485.584534 240.988525,492.227783 235.379089,498.968597 
	C233.619171,501.083496 232.866348,502.558289 233.897064,505.403595 
	C238.171875,517.204163 240.227661,529.517822 239.902054,542.021240 
	C239.411285,560.865540 235.128098,578.849060 225.133591,596.194580 
	C231.988708,596.194580 238.274658,596.194580 244.488373,596.194580 
	C243.211792,591.752441 241.652252,587.967041 241.131577,584.043701 
	C240.629456,580.260254 242.554413,577.210876 246.724884,576.709351 
	C250.397781,576.267700 253.904343,577.079285 255.439804,580.953125 
	C257.163391,585.301636 259.346008,589.712830 259.838501,594.258240 
	C261.255157,607.333069 253.191986,612.023682 241.641083,612.762634 
	C233.701279,613.270630 225.624100,611.482544 217.595398,610.898132 
	C216.275009,610.801941 214.326553,611.179565 213.615631,612.083435 
	C202.258286,626.521973 187.380051,636.049561 170.646698,642.883179 
	C167.533646,644.154480 166.663834,645.077148 167.848755,648.421326 
	C169.081161,651.899597 169.588440,655.705444 169.920242,659.412109 
	C170.245346,663.043884 168.090546,665.421631 164.561600,665.891785 
	C160.895981,666.380188 157.035110,666.340698 155.480484,661.926697 
	C154.028732,657.804688 152.872681,653.578552 151.771255,649.998718 
	C142.480469,649.998718 133.419724,650.091858 124.361534,649.979065 
	C106.379692,649.755188 89.995911,643.959534 74.643028,635.059326 
	C64.079323,628.935303 54.468227,621.574951 47.013321,611.677124 
	C46.436638,610.911499 44.551121,610.728516 43.359371,610.893188 
	C33.944317,612.193665 24.641575,614.321411 15.003000,612.098389 
	C9.278635,610.778259 4.734988,608.175415 1.235717,603.661987 
	C1.000000,598.311951 1.000000,592.623962 1.000000,586.467957 
M173.623672,529.055054 
	C184.649063,520.625916 195.898239,512.469666 206.623871,503.674957 
	C214.203934,497.459534 214.051346,496.955566 208.155334,488.743774 
	C199.937439,477.298157 190.224854,467.471497 177.863602,460.261230 
	C158.889572,449.193787 138.589859,445.124725 117.007858,448.185303 
	C103.843903,450.052124 91.458321,454.658813 80.231499,461.972809 
	C66.256248,471.077332 55.431904,483.099884 46.820343,498.251251 
	C55.266903,505.023560 63.203716,512.226318 71.960770,518.233337 
	C90.084427,530.665466 108.608871,542.516785 127.097366,554.406555 
	C128.473938,555.291809 131.337784,555.334167 132.735748,554.488342 
	C146.257797,546.306702 159.613998,537.851013 173.623672,529.055054 
M70.976524,612.465698 
	C75.900528,615.958374 80.523857,620.010620 85.801025,622.846008 
	C107.671753,634.597351 130.882812,637.127869 154.781448,630.827637 
	C171.339584,626.462463 185.483490,617.494690 197.809814,605.500854 
	C196.875061,604.977844 196.207458,604.453552 195.449356,604.202148 
	C174.298660,597.187195 154.308228,587.528503 134.702499,577.092041 
	C131.412796,575.340881 129.270340,575.815613 126.419952,577.193420 
	C112.598656,583.874451 98.792015,590.594971 84.827034,596.965820 
	C77.863953,600.142334 70.572639,602.599304 62.789783,605.631104 
	C65.641212,608.045166 68.010689,610.051208 70.976524,612.465698 
M218.071289,572.664551 
	C225.705917,553.769165 225.825394,534.598083 220.776535,515.921875 
	C196.543915,532.797607 172.381302,549.624573 148.492004,566.261230 
	C155.107437,569.430176 162.622513,573.436340 170.451797,576.685303 
	C182.165802,581.546265 194.069962,585.959412 205.989258,590.299255 
	C207.186371,590.735168 209.855652,589.810974 210.457336,588.740112 
	C213.235062,583.796326 215.522720,578.577271 218.071289,572.664551 
M52.624878,590.940063 
	C73.469940,584.436951 93.322243,575.610718 111.994469,565.921326 
	C88.030609,549.190918 63.967136,532.390991 40.097290,515.726196 
	C40.093075,515.741211 39.718525,516.897339 39.443348,518.076721 
	C35.713627,534.061157 35.277145,550.168152 40.260120,565.817749 
	C43.031918,574.522949 47.913357,582.556396 52.624878,590.940063 
z"/>
<path fill="#0A1FED" opacity="1.000000" stroke="none" 
	d="
M900.845581,431.767517 
	C910.037842,424.766754 919.941101,423.888977 930.282471,427.068481 
	C937.341980,429.238953 941.797180,434.469421 943.882385,441.381256 
	C945.093506,445.395477 945.857178,449.695892 945.914673,453.879944 
	C946.127563,469.372772 945.964600,484.870819 945.931702,500.366852 
	C945.931030,500.682037 945.795288,500.996918 945.567200,501.984833 
	C940.144958,501.984833 934.530518,502.235443 928.975464,501.772827 
	C927.867493,501.680542 926.153625,498.875336 926.130432,497.300262 
	C925.912048,482.473206 925.759827,467.635956 926.109253,452.813934 
	C926.265320,446.194550 922.248108,441.459778 915.237122,441.044891 
	C909.266846,440.691589 904.396912,445.204865 904.083496,451.675507 
	C903.530701,463.088684 903.296570,474.518372 903.022522,485.943390 
	C902.899292,491.082001 903.001587,496.226013 903.001587,501.700439 
	C896.662231,501.700439 890.623108,501.700439 883.999268,501.700439 
	C883.999268,499.683716 883.999207,497.901245 883.999268,496.118774 
	C883.999451,482.121643 884.048401,468.124207 883.973816,454.127502 
	C883.947327,449.164093 882.700317,444.505615 877.859619,442.099579 
	C872.131897,439.252533 867.297363,442.066101 863.115112,445.663177 
	C861.783325,446.808716 861.113831,449.369476 861.093628,451.292694 
	C860.933838,466.454498 860.857056,481.621124 861.098816,496.780792 
	C861.167419,501.080658 859.686829,502.403259 855.617065,502.095276 
	C851.971924,501.819397 848.248352,502.346161 844.645142,501.870087 
	C843.308960,501.693542 841.177063,499.680634 841.166626,498.489838 
	C840.960693,474.862244 841.013123,451.232422 841.013123,427.013794 
	C845.969604,427.013794 850.680176,426.455475 855.137329,427.275085 
	C857.051147,427.627045 858.438599,430.840851 860.298706,433.029022 
	C864.616882,427.785004 871.586487,425.122650 879.021973,425.186737 
	C886.812561,425.253876 893.006714,429.215790 896.215027,437.465485 
	C897.966187,435.258057 899.261658,433.625061 900.845581,431.767517 
z"/>
<path fill="#0A1FEE" opacity="1.000000" stroke="none" 
	d="
M567.256897,404.207153 
	C574.823853,398.110992 583.458557,395.208527 592.500916,395.371613 
	C602.245789,395.547363 611.959167,397.458008 620.124878,403.636963 
	C622.791565,405.654877 624.012207,408.109558 621.947510,411.331757 
	C620.891907,412.979156 619.866760,414.655640 618.966125,416.390808 
	C616.860352,420.447906 613.814148,420.791321 609.959351,419.030212 
	C605.558411,417.019592 601.198303,414.755005 596.583618,413.417999 
	C590.558411,411.672272 580.244202,414.615173 578.714050,421.596863 
	C577.526245,427.016571 578.263123,430.629089 583.393127,432.965088 
	C590.649109,436.269165 598.140869,439.061951 605.566162,441.985962 
	C614.251526,445.406158 622.222229,449.999146 624.259949,459.838104 
	C628.796387,481.741547 616.891113,499.555573 594.893677,502.156189 
	C582.024841,503.677582 570.677246,500.765778 560.029785,493.987213 
	C557.864563,492.608765 556.000488,490.757172 553.550415,488.758942 
	C555.607910,485.107849 557.465210,481.309906 559.796814,477.829620 
	C561.736267,474.934570 566.294373,475.106873 570.451904,477.992920 
	C576.608337,482.266541 583.022583,485.500549 590.865234,485.038788 
	C600.196777,484.489380 605.177612,479.445679 605.048279,470.490448 
	C604.985840,466.162384 602.941162,463.179626 599.133118,461.668060 
	C591.441711,458.614899 583.655273,455.794891 575.865540,452.996948 
	C560.264099,447.393097 554.729858,430.582947 559.677246,416.972748 
	C561.301147,412.505585 564.509155,408.614288 567.256897,404.207153 
z"/>
<path fill="#0A1FED" opacity="1.000000" stroke="none" 
	d="
M480.000336,408.008392 
	C480.000336,403.208618 480.000336,398.906799 480.000336,394.307068 
	C486.655273,394.307068 492.922516,394.307068 499.862915,394.307068 
	C499.862915,406.634949 499.862915,419.146576 499.862915,430.853912 
	C505.935760,429.116333 511.480225,426.939911 517.226868,426.000641 
	C532.115356,423.567169 543.906982,433.291290 544.806091,446.734650 
	C545.934753,463.609863 545.594177,480.580536 546.050903,497.505615 
	C546.147705,501.092316 544.781372,502.181793 541.369873,502.035858 
	C536.419006,501.824158 531.452393,501.981628 525.996643,501.981628 
	C525.996643,488.922241 525.996460,476.306702 525.996643,463.691132 
	C525.996704,459.857941 526.091187,456.022034 525.978943,452.192169 
	C525.741638,444.094055 518.697327,439.030792 510.994507,441.617493 
	C508.118347,442.583344 505.199005,443.984650 502.900421,445.906372 
	C501.388000,447.170746 500.184296,449.708405 500.153107,451.696411 
	C499.918030,466.692261 499.871368,481.695160 500.084412,496.691315 
	C500.143921,500.878387 498.863007,502.343048 494.681793,502.055023 
	C490.050934,501.736084 485.381165,501.982117 480.000336,501.982117 
	C480.000336,470.673126 480.000336,439.589722 480.000336,408.008392 
z"/>
<path fill="#0A1FED" opacity="1.000000" stroke="none" 
	d="
M636.142090,499.016418 
	C636.142090,464.230011 636.142090,429.443573 636.142090,394.328979 
	C642.346680,394.328979 648.395813,394.328979 654.902344,394.328979 
	C654.902344,407.000000 654.902344,419.561584 654.902344,431.167847 
	C661.622559,429.098816 668.055359,426.458649 674.747742,425.207642 
	C685.640625,423.171387 698.615601,433.086609 699.879700,444.366089 
	C700.816040,452.721191 700.827209,461.195404 700.960571,469.621155 
	C701.128479,480.233826 701.001099,490.851166 701.001099,501.720642 
	C694.571899,501.720642 688.641357,501.720642 682.002991,501.720642 
	C682.002991,498.002045 682.004517,494.247772 682.002625,490.493530 
	C681.997253,479.499451 682.133179,468.502319 681.898438,457.513123 
	C681.826782,454.160645 680.747986,450.827209 680.105591,447.489868 
	C679.102600,442.279297 672.171997,439.875336 668.292725,441.183838 
	C664.194031,442.566376 660.258850,444.714111 656.656616,447.130371 
	C655.461060,447.932373 655.083252,450.598572 655.070251,452.417755 
	C654.953674,468.719910 655.002197,485.023224 655.002197,502.514893 
	C648.566589,501.897858 642.486755,501.314941 636.315186,500.225098 
	C636.238037,499.480988 636.210938,499.247070 636.142090,499.016418 
z"/>
<path fill="#0A1FED" opacity="1.000000" stroke="none" 
	d="
M290.929932,414.076233 
	C282.105286,414.050629 273.278900,414.104828 264.457855,413.913422 
	C263.132233,413.884644 260.775818,412.818573 260.693848,412.042480 
	C260.227539,407.626678 260.181427,403.148560 260.347870,398.704956 
	C260.370514,398.100464 262.382446,397.081451 263.476166,397.077667 
	C290.095795,396.986023 316.715790,397.006104 343.665070,397.006104 
	C343.665070,402.669250 343.665070,408.051788 343.665070,413.825806 
	C333.648865,413.825806 323.719818,413.825806 313.265778,413.825806 
	C313.265778,443.240479 313.265778,472.277130 313.265778,502.484833 
	C305.807281,501.950195 298.923126,501.456757 292.000793,500.062317 
	C291.974030,472.729492 292.007812,446.297577 291.950867,419.865875 
	C291.946716,417.935272 291.285583,416.006073 290.929932,414.076233 
z"/>
<path fill="#0A1FEE" opacity="1.000000" stroke="none" 
	d="
M355.210022,479.718109 
	C359.054626,485.523071 367.868744,488.763519 374.616119,486.638214 
	C377.970520,485.581635 381.189148,483.944000 384.277344,482.224640 
	C390.060089,479.005127 398.432556,482.998383 398.839203,489.582428 
	C398.925629,490.981689 397.522766,492.878815 396.273712,493.886963 
	C389.581390,499.288574 381.885132,501.591034 373.233673,502.242218 
	C363.603424,502.967041 354.713867,501.737366 346.722443,496.308289 
	C337.121826,489.785980 333.055664,480.283447 331.857483,468.917969 
	C330.871826,459.568054 331.701691,450.684357 336.240509,442.520752 
	C341.849213,432.432800 350.694244,426.954529 362.294922,425.980652 
	C369.997772,425.334015 377.326508,425.932587 384.397980,429.680603 
	C394.578705,435.076569 399.303925,443.994537 399.814911,454.701538 
	C400.546082,470.021088 400.724335,466.779449 388.048920,466.963806 
	C375.915436,467.140320 363.777405,467.001892 350.160187,467.001892 
	C351.938049,471.610992 353.447174,475.523438 355.210022,479.718109 
M373.818817,441.354156 
	C363.870453,436.009247 351.111328,446.385254 352.372864,454.773193 
	C362.113770,454.773193 371.881683,454.773193 381.941132,454.773193 
	C382.011017,448.735565 379.453003,444.592651 373.818817,441.354156 
z"/>
<path fill="#0A1FEE" opacity="1.000000" stroke="none" 
	d="
M742.061157,441.001282 
	C738.393494,442.012665 734.926880,442.587311 731.947021,444.112793 
	C721.789917,449.312622 718.987671,448.455292 713.976257,437.695190 
	C719.710999,430.914124 727.444763,427.808563 735.924744,425.998444 
	C742.980286,424.492340 749.941040,424.573822 756.757568,427.040527 
	C765.975830,430.376373 772.420471,438.891083 772.879761,448.468018 
	C773.658020,464.695343 773.606750,480.960968 774.092285,497.204865 
	C774.205078,500.978455 772.859070,502.070129 769.188782,502.023438 
	C760.345093,501.910950 758.746826,501.090424 756.377258,493.637604 
	C750.578735,498.989960 743.730896,501.413025 736.147095,502.562042 
	C727.029053,503.943420 715.674133,499.724152 712.017517,490.709747 
	C708.105774,481.066498 712.233643,470.004486 721.475830,464.868134 
	C731.354187,459.378174 742.266418,458.551422 753.216492,457.733582 
	C756.188965,447.144806 751.360657,441.488861 742.061157,441.001282 
M731.945435,476.614044 
	C727.951355,481.874634 729.524292,486.586517 735.760254,487.991882 
	C742.211121,489.445648 748.137024,487.354614 752.128357,482.847015 
	C754.350037,480.338043 753.829468,475.400909 754.605408,471.232178 
	C745.879517,470.597382 738.814331,471.667786 731.945435,476.614044 
z"/>
<path fill="#0A1FEE" opacity="1.000000" stroke="none" 
	d="
M957.024048,474.331299 
	C963.485779,463.265747 974.305542,460.861115 985.361450,459.038452 
	C989.702454,458.322754 994.115723,458.045624 998.745483,457.541656 
	C999.322205,452.208893 999.668579,446.896820 994.667297,443.266876 
	C989.955444,439.847076 984.840088,440.418549 979.814636,442.697876 
	C977.733154,443.641937 975.691284,444.702545 973.728210,445.872589 
	C968.604736,448.926331 963.742798,447.696808 961.195862,442.559753 
	C960.334106,440.821777 959.609680,439.015747 958.797546,437.184540 
	C967.744812,428.944061 978.175598,424.918823 990.003967,425.058502 
	C1006.316650,425.251129 1017.287964,436.852753 1017.054749,452.377899 
	C1016.810059,468.667175 1017.000000,484.962921 1017.000000,501.209961 
	C1007.418701,503.001617 1003.758423,501.602234 1001.231628,493.931183 
	C997.994690,495.864044 994.941833,498.060852 991.590149,499.611755 
	C984.282654,502.993134 976.781433,503.513184 968.809448,501.487274 
	C958.373718,498.835297 952.797791,486.046112 957.024048,474.331299 
M998.998840,473.825439 
	C998.913269,472.688171 998.827637,471.550903 998.786316,471.001434 
	C996.613159,471.001434 994.581848,470.643585 992.731445,471.070404 
	C987.732727,472.223480 982.647827,473.316437 977.942810,475.267120 
	C976.166443,476.003662 974.149658,479.176483 974.372009,480.975647 
	C974.668091,483.372314 976.547119,486.594879 978.623901,487.545959 
	C983.554993,489.804199 988.708374,488.071625 993.353821,485.790436 
	C997.830566,483.592102 1000.210938,479.973083 998.998840,473.825439 
z"/>
<path fill="#0A1FEE" opacity="1.000000" stroke="none" 
	d="
M464.172668,430.662659 
	C465.145996,431.630280 465.730255,432.604797 466.582153,432.995087 
	C472.970856,435.922058 468.612366,439.329376 466.876862,442.313354 
	C464.812439,445.862854 461.711487,447.312988 457.702759,445.125793 
	C456.124451,444.264618 454.638977,443.179932 452.981201,442.527313 
	C446.683594,440.047882 440.398590,439.899139 434.824249,444.151154 
	C432.862640,445.647461 431.502472,448.131073 430.304443,450.394989 
	C425.306274,459.840302 427.334045,475.761536 434.264252,482.718323 
	C439.334106,487.807587 447.492737,488.724152 453.601318,484.865356 
	C454.981659,483.993408 456.214661,482.831543 457.679260,482.160736 
	C461.362549,480.473663 465.062134,479.525360 467.144104,484.448853 
	C468.139679,486.803162 473.343231,487.783569 469.856201,491.586578 
	C464.228577,497.724152 457.219727,501.113861 448.835571,502.077698 
	C440.725647,503.010010 432.875946,502.809845 425.574036,498.851685 
	C414.430084,492.811005 409.411163,482.739777 408.054321,470.655029 
	C406.853882,459.963257 407.746460,449.435699 413.993622,440.247650 
	C419.810669,431.692230 427.906006,426.900208 438.513947,425.867096 
	C447.554199,424.986694 455.907715,426.276550 464.172668,430.662659 
z"/>
<path fill="#0A1FEE" opacity="1.000000" stroke="none" 
	d="
M808.020325,478.000000 
	C808.020203,484.658966 807.861023,490.823669 808.080994,496.974792 
	C808.208008,500.527069 807.187500,502.015991 803.367432,502.108063 
	C787.997925,502.478485 788.000488,502.585632 788.000488,487.270386 
	C788.000549,468.793365 788.151917,450.314240 787.895264,431.840790 
	C787.830200,427.154724 789.320496,425.348846 793.867493,425.952606 
	C794.521790,426.039490 795.207520,425.889679 795.861877,425.976349 
	C804.991516,427.185486 805.330200,426.502808 806.074402,434.839661 
	C810.894165,431.819641 815.842407,427.792786 821.498108,425.550507 
	C824.505188,424.358307 828.754150,426.169983 832.401978,426.845276 
	C833.034180,426.962341 833.880737,428.159576 833.909302,428.886139 
	C833.999573,431.186829 833.979004,433.542267 833.572083,435.799194 
	C833.066650,438.602173 832.954346,442.393402 831.150452,443.784302 
	C829.384033,445.146393 825.702576,444.110229 822.867859,443.985840 
	C814.278015,443.608948 808.552734,450.920135 808.081970,458.528870 
	C807.692017,464.829742 808.013855,471.174622 808.020325,478.000000 
z"/>
<path fill="#0A1FEE" opacity="1.000000" stroke="none" 
	d="
M217.468292,395.992126 
	C229.294067,399.021790 236.960205,409.739319 236.035843,424.012970 
	C235.365616,434.362366 226.708145,444.900085 216.150650,446.825012 
	C201.375732,449.518829 186.685089,440.021515 184.819687,425.524658 
	C183.325073,413.909485 186.969498,405.046112 196.232620,398.475708 
	C198.461426,396.894806 201.695038,396.368073 204.536713,396.099792 
	C208.666061,395.709869 212.859116,395.994751 217.468292,395.992126 
M212.120178,411.008026 
	C210.962372,411.011719 209.782074,410.869568 208.650650,411.044189 
	C203.515350,411.836761 198.914352,418.305267 200.063507,423.013397 
	C201.398102,428.481262 207.412872,431.388397 212.961670,430.156921 
	C218.084106,429.020050 220.509888,425.306915 220.585602,421.276642 
	C220.670853,416.738251 217.927979,412.635468 212.120178,411.008026 
z"/>
<path fill="#0A1FEE" opacity="1.000000" stroke="none" 
	d="
M888.267944,568.008301 
	C887.323120,566.431824 886.148682,564.714844 886.452087,563.319031 
	C888.072327,555.864075 890.270325,548.531006 891.765503,541.055237 
	C892.105347,539.355774 890.868469,536.018677 889.631226,535.604431 
	C887.137146,534.769531 884.670593,536.221497 884.034363,539.305115 
	C882.455933,546.955017 881.059692,554.646118 879.305847,562.255066 
	C877.791504,568.824646 877.279968,568.972290 869.901978,567.254517 
	C871.875549,557.231873 873.851440,547.197388 875.735474,537.629700 
	C874.765137,536.076294 873.958069,534.784363 873.151062,533.492432 
	C875.296509,532.280334 871.990662,528.141052 876.343018,527.787170 
	C877.353394,527.705017 878.488342,525.342041 879.021179,523.835754 
	C881.843384,515.858765 883.808105,514.534485 892.815186,515.347290 
	C892.434631,518.352173 894.647766,522.194092 888.916687,522.918152 
	C887.895996,523.047119 887.210571,525.830627 886.179810,527.741577 
	C890.849670,528.062622 894.504761,529.441895 895.540833,522.514038 
	C896.487915,516.181763 900.993835,514.686279 909.865295,515.257690 
	C908.470764,517.974060 910.473938,522.288879 905.068970,522.719604 
	C904.297363,522.781128 903.733215,525.445557 902.936462,527.207397 
	C908.445679,528.643250 906.056519,533.448486 904.439941,534.471619 
	C899.337158,537.701599 899.721436,542.983276 898.450134,547.440979 
	C896.587280,553.972778 895.788635,560.808105 894.442749,568.016113 
	C892.633362,568.016113 890.676880,568.016113 888.267944,568.008301 
z"/>
<path fill="#0A1FEE" opacity="1.000000" stroke="none" 
	d="
M696.119385,534.426331 
	C690.924744,535.844727 690.514038,540.344299 690.071228,544.462585 
	C689.133789,553.181335 685.697754,557.270813 676.209229,559.548279 
	C678.427246,560.478027 680.132935,561.315125 681.917297,561.919922 
	C689.745911,564.573364 691.222046,570.829224 685.445435,577.060181 
	C681.703674,581.096191 670.134827,582.699097 665.555054,579.815979 
	C661.176941,577.059814 662.011841,571.519165 667.699768,567.806091 
	C664.227722,563.038513 666.448730,559.676941 670.725830,556.897278 
	C671.000366,556.718872 671.094604,556.035156 671.040710,555.616394 
	C670.733643,553.229187 669.627625,550.680115 670.138672,548.501770 
	C671.681091,541.926880 670.851929,534.415405 677.520020,529.670471 
	C681.109497,527.116272 684.060852,526.103088 688.386047,528.442444 
	C690.421448,529.543335 693.817505,528.128540 696.986023,527.815247 
	C696.722168,529.454895 696.372131,531.630432 696.063965,534.152100 
	C696.105835,534.498169 696.119385,534.426331 696.119385,534.426331 
M679.891174,542.269836 
	C679.158630,545.026001 678.426025,547.782227 677.693481,550.538391 
	C678.432922,550.723633 679.172363,550.908875 679.911804,551.094177 
	C681.146118,546.208557 682.380371,541.322998 683.614685,536.437378 
	C683.050476,536.214539 682.486267,535.991638 681.922058,535.768738 
	C681.275513,537.664185 680.628967,539.559570 679.891174,542.269836 
M672.244080,573.572510 
	C674.755310,573.300110 677.266479,573.027649 679.777710,572.755249 
	C679.679260,572.100708 679.580872,571.446167 679.482422,570.791687 
	C676.786194,570.332947 673.550293,567.136658 672.244080,573.572510 
z"/>
<path fill="#0A1FEE" opacity="1.000000" stroke="none" 
	d="
M841.328735,519.327881 
	C837.689758,535.731812 834.273438,551.767334 830.816650,567.993042 
	C826.016296,567.993042 821.632446,568.063843 817.252258,567.968994 
	C814.165527,567.902222 812.572144,566.020874 813.057983,563.095886 
	C814.392212,555.062378 815.934326,547.061340 817.526001,539.073730 
	C818.020325,536.592712 818.679626,534.080017 819.713989,531.784851 
	C821.773438,527.214783 825.073059,525.799927 830.133118,529.106140 
	C831.339355,524.532837 832.482910,520.197388 833.755859,515.371094 
	C835.889160,515.371094 838.619324,515.371094 841.808838,515.371094 
	C841.726685,516.516602 841.639099,517.738037 841.328735,519.327881 
M825.564331,552.927307 
	C826.656372,547.384949 827.748413,541.842651 828.840454,536.300293 
	C828.148376,536.168091 827.456360,536.035889 826.764343,535.903687 
	C825.098816,543.774536 823.433350,551.645325 821.767822,559.516174 
	C822.310608,559.647888 822.853394,559.779663 823.396179,559.911377 
	C823.966614,557.816650 824.537109,555.721924 825.564331,552.927307 
z"/>
<path fill="#0A1FEE" opacity="1.000000" stroke="none" 
	d="
M626.967773,531.673340 
	C626.596008,533.160034 626.249084,534.211182 625.758362,535.697876 
	C628.276428,535.878723 630.380371,536.029785 632.814209,536.204590 
	C632.175232,538.786499 631.813904,541.320068 630.862671,543.608398 
	C630.428650,544.652405 628.812256,545.894165 627.763977,545.865967 
	C624.448853,545.776550 622.993774,546.831177 622.742920,550.337646 
	C622.552979,552.993469 621.305603,555.573669 620.319153,558.892700 
	C623.945984,558.892700 626.696533,558.892700 630.202454,558.892700 
	C629.786621,562.152954 629.445801,564.825684 629.077271,567.715454 
	C622.609253,567.715454 616.403625,567.715454 609.872681,567.715454 
	C613.636047,550.042175 617.323242,532.726685 621.046997,515.239441 
	C627.001465,515.239441 632.755188,515.239441 638.472290,515.239441 
	C639.759033,523.727051 639.636047,524.150024 632.079895,523.915588 
	C626.066101,523.728882 627.133850,527.734009 626.967773,531.673340 
z"/>
<path fill="#0A1FEE" opacity="1.000000" stroke="none" 
	d="
M797.255737,563.490601 
	C797.019470,565.052429 796.959106,566.214661 796.882141,567.696594 
	C793.957397,567.696594 791.073425,567.696594 788.018127,567.696594 
	C789.755920,559.821045 791.446167,552.205933 793.113464,544.585815 
	C793.978577,540.631897 795.040771,536.701355 795.584167,532.701904 
	C796.231628,527.935608 799.235962,527.603577 803.009216,527.970703 
	C804.757507,528.140747 806.628601,528.275085 808.291748,527.841492 
	C811.897522,526.901367 814.777527,528.566833 814.871704,532.296387 
	C814.924194,534.375977 814.430542,536.494934 813.996948,538.556946 
	C811.957458,548.256714 809.853516,557.942871 807.735046,567.808472 
	C805.321899,567.808472 803.029541,567.808472 799.339294,567.808472 
	C801.486755,557.199646 803.582275,546.847229 805.683289,536.468079 
	C803.649109,537.372925 803.596985,537.359497 800.640991,548.838745 
	C799.427246,553.552429 798.492981,558.338135 797.255737,563.490601 
z"/>
<path fill="#0A20EE" opacity="1.000000" stroke="none" 
	d="
M995.744812,540.599121 
	C993.629150,549.849426 991.704163,558.716614 989.734558,567.789551 
	C987.386169,567.789551 985.094604,567.789551 981.371033,567.789551 
	C983.504456,557.180176 985.603943,546.739685 987.703369,536.299133 
	C987.288147,536.193787 986.872864,536.088379 986.457642,535.982971 
	C981.854431,545.946472 982.070618,557.295410 978.165283,567.769348 
	C975.702759,567.769348 972.950867,567.769348 969.965332,567.769348 
	C971.677307,560.223999 973.347595,552.968079 974.964111,545.700256 
	C976.019470,540.955566 977.050659,536.204163 977.988098,531.435242 
	C978.534546,528.655457 980.069336,527.767273 982.846130,527.935364 
	C985.835327,528.116272 988.876282,529.382202 991.974426,527.351013 
	C992.447388,527.040894 996.262512,530.071045 996.774475,532.018311 
	C997.428406,534.505493 996.297302,537.461914 995.744812,540.599121 
z"/>
<path fill="#0A1FEE" opacity="1.000000" stroke="none" 
	d="
M737.586304,527.353516 
	C740.332031,530.906250 740.360413,534.389343 739.426331,538.307373 
	C737.694702,545.570557 736.266296,552.918091 735.030151,560.283997 
	C733.717651,568.105042 732.971436,568.807922 724.854370,567.404785 
	C726.921509,557.050171 728.987000,546.703552 731.052551,536.356995 
	C730.384949,536.216614 729.717407,536.076172 729.049805,535.935791 
	C726.775818,546.368652 724.501831,556.801453 722.128845,567.688293 
	C720.032104,567.688293 717.304260,567.688293 714.074219,567.688293 
	C714.074219,566.202087 713.817383,564.713989 714.115173,563.346619 
	C716.324707,553.201111 718.930115,543.131531 720.787170,532.924622 
	C721.515015,528.923889 723.252441,526.715698 726.748596,528.177368 
	C730.793091,529.868286 733.731506,526.697327 737.586304,527.353516 
z"/>
<path fill="#0A20EE" opacity="1.000000" stroke="none" 
	d="
M866.163025,527.639038 
	C870.202881,529.020874 871.558655,531.535828 871.019958,535.318298 
	C870.558594,538.557190 870.411987,541.844177 869.875977,545.068298 
	C869.301331,548.524780 867.623047,550.311951 863.541016,550.127197 
	C855.822205,549.777893 855.776917,550.064697 855.728882,557.563049 
	C855.724060,558.324402 856.403992,559.090027 856.766113,559.853699 
	C857.474854,559.280579 858.809814,558.694397 858.798157,558.136292 
	C858.633423,550.256775 864.099426,553.660828 868.362427,553.050476 
	C866.489258,558.312317 866.264648,564.012634 861.020386,566.216614 
	C857.996826,567.487305 853.998596,567.789978 850.812500,567.007690 
	C845.979187,565.820740 846.412598,561.013367 847.129517,557.465393 
	C848.692078,549.732666 850.636963,542.030334 853.118958,534.545471 
	C855.041870,528.746643 859.530701,526.672119 866.163025,527.639038 
z"/>
<path fill="#0A1FEE" opacity="1.000000" stroke="none" 
	d="
M660.997925,550.009766 
	C658.898987,550.009766 657.254456,550.009766 655.086670,550.009766 
	C654.632568,553.365051 654.210327,556.484924 653.788086,559.604736 
	C654.205322,559.924866 654.622620,560.245056 655.039856,560.565186 
	C657.712158,556.865417 658.205017,549.504150 665.427734,553.755310 
	C667.251587,562.204956 658.333008,570.848145 650.000366,567.807007 
	C646.008118,566.349915 644.396179,562.356995 645.151001,558.488647 
	C646.699097,550.554932 648.685608,542.674622 651.043152,534.940491 
	C653.194885,527.881287 661.674500,525.199768 666.999207,529.570068 
	C667.957092,530.356262 668.941528,531.862488 668.894226,532.993652 
	C668.659363,538.611633 668.083191,544.215393 667.612122,550.009705 
	C664.747925,550.009705 663.100159,550.009705 660.997925,550.009766 
z"/>
<path fill="#0A20EE" opacity="1.000000" stroke="none" 
	d="
M696.113831,534.533875 
	C696.761475,534.332153 697.540405,534.251587 698.015808,533.829346 
	C699.766357,532.274536 701.262634,530.395081 703.139893,529.030151 
	C706.084900,526.888794 709.238953,526.106384 712.721680,528.284485 
	C716.579651,530.697266 716.558960,534.462830 715.896179,537.982117 
	C714.032715,547.877869 711.731995,557.691284 709.361633,568.657043 
	C706.745300,567.863403 704.192993,567.003174 701.586853,566.361450 
	C700.967224,566.208862 700.137573,566.722900 699.455444,567.039856 
	C694.127319,569.515381 691.114868,567.730408 690.990356,562.085938 
	C690.789490,552.980530 695.321045,546.844849 703.355957,543.426575 
	C707.391602,541.709656 707.499756,538.763916 707.870361,535.570068 
	C707.402405,535.355469 706.934448,535.140869 706.466431,534.926208 
	C705.786255,536.723022 705.106079,538.519836 704.263855,540.744629 
	C702.073303,540.744629 699.327515,540.744629 695.948242,540.744629 
	C696.223633,538.762939 696.460571,537.057495 696.408447,534.889160 
	C696.119385,534.426331 696.105835,534.498169 696.113831,534.533875 
M702.795776,551.775269 
	C700.726501,554.151367 698.833374,556.563965 700.226562,559.656860 
	C700.782715,559.800903 701.338928,559.944946 701.895081,560.088989 
	C702.625061,557.416321 703.354980,554.743713 704.611389,551.830078 
	C704.654419,551.384338 704.697510,550.938538 704.740540,550.492798 
	C704.262756,550.767395 703.785034,551.041992 702.795776,551.775269 
z"/>
<path fill="#0A1FEE" opacity="1.000000" stroke="none" 
	d="
M789.722473,530.463501 
	C790.285217,533.208984 791.266174,535.736145 790.844116,538.002014 
	C789.123657,547.240173 786.986389,556.401062 784.973450,565.584045 
	C784.468201,567.889160 779.760681,569.017334 776.376892,567.779846 
	C775.422974,567.431030 774.240234,567.002441 773.361572,567.268433 
	C767.844910,568.937927 765.761475,567.692200 765.079956,562.067261 
	C764.415771,556.585571 770.100830,547.444153 775.309204,544.801025 
	C778.921875,542.967590 783.779785,541.559509 781.369507,534.710693 
	C779.009033,539.632690 775.991150,543.038025 770.395264,540.469360 
	C770.659973,530.315125 783.103516,523.013794 789.722473,530.463501 
M775.104126,555.521118 
	C774.904053,556.833374 774.703979,558.145630 774.503967,559.457947 
	C775.142456,559.626648 775.780945,559.795410 776.419434,559.964111 
	C777.460083,556.921753 778.500732,553.879395 779.541443,550.836975 
	C779.020569,550.620117 778.499695,550.403259 777.978760,550.186340 
	C777.175232,551.772705 776.371704,553.359070 775.104126,555.521118 
z"/>
<path fill="#0A1FEE" opacity="1.000000" stroke="none" 
	d="
M961.726746,567.087280 
	C958.133850,566.872375 954.370117,567.480286 951.851074,565.987671 
	C948.248047,563.852722 948.496765,559.696228 949.594849,555.731445 
	C951.543152,548.696472 952.903320,541.487183 955.086609,534.531921 
	C957.222717,527.726990 967.013000,524.701721 971.047424,529.985779 
	C973.254883,532.877014 972.602112,538.187927 972.633118,542.412231 
	C972.650452,544.763367 971.423889,547.123779 970.607971,550.010254 
	C968.824524,550.010254 966.866455,550.008606 964.908386,550.010620 
	C958.073975,550.017578 957.876953,550.206482 958.026306,556.912720 
	C958.047363,557.857666 958.204529,558.799561 958.789490,560.328674 
	C961.146729,555.671936 962.811218,549.966614 970.053772,553.876953 
	C969.093201,559.059021 968.112610,564.417603 961.726746,567.087280 
M964.993286,537.598755 
	C964.829224,536.760681 964.665161,535.922607 964.501099,535.084534 
	C964.037476,534.809448 963.573853,534.534363 963.110291,534.259216 
	C962.799561,535.030640 962.380737,535.777588 962.199951,536.578308 
	C961.781372,538.432068 961.432861,540.306396 961.203491,542.190369 
	C961.182617,542.362427 962.676697,542.919678 962.705994,542.867859 
	C963.524597,541.419189 964.244812,539.914978 964.993286,537.598755 
z"/>
<path fill="#0A20EE" opacity="1.000000" stroke="none" 
	d="
M915.001587,559.014771 
	C916.398743,550.885193 917.218628,543.033630 919.407471,535.584290 
	C920.736389,531.061707 924.485413,527.487061 929.884644,527.029907 
	C933.642151,526.711792 937.401001,527.754089 938.024170,531.704346 
	C938.562744,535.118164 937.902649,539.092407 936.491882,542.246033 
	C935.981323,543.387451 931.755371,542.866821 929.087952,543.117432 
	C929.449097,540.196777 929.732117,537.907410 930.015198,535.618042 
	C929.447754,535.508606 928.880310,535.399109 928.312866,535.289673 
	C926.469238,543.381042 924.625549,551.472412 922.781921,559.563782 
	C923.229431,559.849548 923.676941,560.135315 924.124390,560.421082 
	C925.885681,555.411011 926.820679,549.236755 934.309021,552.537964 
	C935.450928,561.914551 930.264893,569.850647 919.665405,567.915649 
	C915.080017,567.078552 914.664612,563.332520 915.001587,559.014771 
z"/>
<path fill="#0A1FEE" opacity="1.000000" stroke="none" 
	d="
M741.000671,557.128052 
	C742.085266,550.589539 743.193665,544.518799 744.223572,538.434814 
	C744.348633,537.696472 744.294495,536.369263 743.911377,536.188599 
	C739.332092,534.029175 744.220520,531.077637 743.203003,528.677246 
	C749.091614,527.506592 746.953735,521.335327 749.719604,518.212769 
	C752.003357,518.207214 754.285828,518.207214 756.968811,518.207214 
	C756.568115,521.289368 756.198975,524.128479 755.789062,527.280823 
	C757.308594,527.748596 758.606689,528.148254 760.127258,528.616394 
	C758.890564,532.282776 759.906189,537.425049 753.488647,536.093811 
	C752.299927,542.937988 751.020874,549.473755 750.147583,556.063171 
	C749.982605,557.307922 751.852356,558.710449 752.042542,560.138794 
	C752.375732,562.641663 752.135498,565.220947 752.135498,567.997559 
	C750.320435,567.997559 749.337769,567.996948 748.355164,567.997559 
	C741.857300,568.001648 741.008606,567.146362 741.001282,560.584351 
	C741.000183,559.586853 741.000793,558.589417 741.000671,557.128052 
z"/>
<path fill="#0A1FEE" opacity="1.000000" stroke="none" 
	d="
M999.022583,533.949463 
	C1001.628906,528.511230 1004.235046,523.485046 1007.000488,518.151733 
	C1008.843872,518.151733 1011.136780,518.151733 1014.119995,518.151733 
	C1013.497925,521.330200 1012.926086,524.251892 1012.283630,527.534485 
	C1013.627197,527.788330 1015.146667,528.075500 1017.058594,528.436768 
	C1015.883179,532.012390 1016.681396,536.750427 1010.682068,536.148376 
	C1009.127441,542.532410 1007.447571,548.792053 1006.136902,555.128113 
	C1005.615356,557.649414 1005.122437,560.859558 1009.662964,560.154846 
	C1009.304016,562.836670 1008.989319,565.187439 1008.588379,568.182556 
	C1005.584717,567.883423 1002.381104,568.306763 999.911926,567.155212 
	C995.519287,565.106506 996.666077,560.500305 997.181824,556.938782 
	C997.945557,551.664795 999.722290,546.545227 1000.847473,541.312561 
	C1001.384827,538.813782 1002.282959,535.972717 999.022583,533.949463 
z"/>
<path fill="#0A20EE" opacity="1.000000" stroke="none" 
	d="
M637.950928,537.758362 
	C639.396545,530.147095 640.804626,522.964966 642.290649,515.385498 
	C645.005371,515.385498 647.873474,515.385498 651.010437,515.385498 
	C647.254272,532.937744 643.526367,550.357727 639.788269,567.825562 
	C637.131958,567.825562 634.852051,567.825562 631.243164,567.825562 
	C633.533386,557.649231 635.723389,547.918335 637.950928,537.758362 
z"/>
<path fill="#0A1FEE" opacity="1.000000" stroke="none" 
	d="
M173.999466,406.981842 
	C174.400406,412.569519 171.801575,415.746155 167.155121,417.321564 
	C162.852615,418.780304 158.945435,418.394348 155.372147,414.971802 
	C151.313187,411.084076 151.114944,406.546417 152.707031,401.855896 
	C154.712387,395.947906 159.609818,394.060944 167.828293,396.124695 
	C173.010956,397.426147 174.064713,401.808624 173.999466,406.981842 
z"/>
<path fill="#0A20EE" opacity="1.000000" stroke="none" 
	d="
M951.371704,532.279175 
	C948.635437,544.345337 946.151855,556.063049 943.657654,567.830811 
	C940.776917,567.830811 938.159668,567.830811 935.081299,567.830811 
	C937.868103,554.605530 940.597900,541.651123 943.404480,528.332031 
	C945.894775,528.332031 948.636780,528.332031 951.853699,528.332031 
	C951.779480,529.497192 951.701965,530.713928 951.371704,532.279175 
z"/>
<path fill="#0A20EE" opacity="1.000000" stroke="none" 
	d="
M910.935669,559.020264 
	C910.446655,562.027954 910.016418,564.604858 909.513123,567.619812 
	C907.136353,567.619812 904.417908,567.619812 901.290161,567.619812 
	C901.202087,566.323120 900.778625,564.829834 901.060730,563.484619 
	C903.131775,553.609131 905.243164,543.739624 907.547058,533.916321 
	C909.103149,527.281616 909.252563,527.316650 917.407227,528.641235 
	C915.265686,538.642273 913.130066,548.615845 910.935669,559.020264 
z"/>
<path fill="#0000FF" opacity="1.000000" stroke="none" 
	d="
M290.958893,414.537415 
	C291.285583,416.006073 291.946716,417.935272 291.950867,419.865875 
	C292.007812,446.297577 291.974030,472.729492 291.948975,499.635803 
	C291.623566,498.404755 291.043976,496.699860 291.040070,494.993683 
	C290.978821,468.328766 290.991882,441.663666 290.958893,414.537415 
z"/>
<path fill="#0A1FEE" opacity="1.000000" stroke="none" 
	d="
M919.936829,516.839233 
	C919.615112,518.353882 919.561157,519.621460 918.941040,520.480164 
	C917.982605,521.807312 916.706421,523.710083 915.439087,523.812622 
	C913.714966,523.952087 910.343445,522.590759 910.358582,521.934753 
	C910.409973,519.704041 911.080566,516.255493 912.555847,515.593933 
	C914.506775,514.719177 917.439941,516.034851 919.936829,516.839233 
z"/>
<path fill="#0A1FEE" opacity="1.000000" stroke="none" 
	d="
M950.614197,523.986572 
	C945.165527,523.813110 945.165527,523.813110 946.462158,515.230469 
	C949.198669,515.230469 951.971069,515.230469 956.030396,515.230469 
	C954.112183,518.579041 952.571045,521.269409 950.614197,523.986572 
z"/>
<path fill="#0D28FF" opacity="1.000000" stroke="none" 
	d="
M636.099243,499.254608 
	C636.210938,499.247070 636.238037,499.480988 636.212891,499.836243 
	C636.202332,499.954315 636.056458,499.492798 636.099243,499.254608 
z"/>
<path fill="#000000" opacity="1.000000" stroke="none" 
	d="
M173.320618,529.264282 
	C159.613998,537.851013 146.257797,546.306702 132.735748,554.488342 
	C131.337784,555.334167 128.473938,555.291809 127.097366,554.406555 
	C108.608871,542.516785 90.084427,530.665466 71.960770,518.233337 
	C63.203716,512.226318 55.266903,505.023560 46.820343,498.251251 
	C55.431904,483.099884 66.256248,471.077332 80.231499,461.972809 
	C91.458321,454.658813 103.843903,450.052124 117.007858,448.185303 
	C138.589859,445.124725 158.889572,449.193787 177.863602,460.261230 
	C190.224854,467.471497 199.937439,477.298157 208.155334,488.743774 
	C214.051346,496.955566 214.203934,497.459534 206.623871,503.674957 
	C195.898239,512.469666 184.649063,520.625916 173.320618,529.264282 
z"/>
<path fill="#000000" opacity="1.000000" stroke="none" 
	d="
M70.678345,612.261475 
	C68.010689,610.051208 65.641212,608.045166 62.789783,605.631104 
	C70.572639,602.599304 77.863953,600.142334 84.827034,596.965820 
	C98.792015,590.594971 112.598656,583.874451 126.419952,577.193420 
	C129.270340,575.815613 131.412796,575.340881 134.702499,577.092041 
	C154.308228,587.528503 174.298660,597.187195 195.449356,604.202148 
	C196.207458,604.453552 196.875061,604.977844 197.809814,605.500854 
	C185.483490,617.494690 171.339584,626.462463 154.781448,630.827637 
	C130.882812,637.127869 107.671753,634.597351 85.801025,622.846008 
	C80.523857,620.010620 75.900528,615.958374 70.678345,612.261475 
z"/>
<path fill="#000000" opacity="1.000000" stroke="none" 
	d="
M218.028671,573.060669 
	C215.522720,578.577271 213.235062,583.796326 210.457336,588.740112 
	C209.855652,589.810974 207.186371,590.735168 205.989258,590.299255 
	C194.069962,585.959412 182.165802,581.546265 170.451797,576.685303 
	C162.622513,573.436340 155.107437,569.430176 148.492004,566.261230 
	C172.381302,549.624573 196.543915,532.797607 220.776535,515.921875 
	C225.825394,534.598083 225.705917,553.769165 218.028671,573.060669 
z"/>
<path fill="#000000" opacity="1.000000" stroke="none" 
	d="
M52.234451,590.916321 
	C47.913357,582.556396 43.031918,574.522949 40.260120,565.817749 
	C35.277145,550.168152 35.713627,534.061157 39.443348,518.076721 
	C39.718525,516.897339 40.093075,515.741211 40.097290,515.726196 
	C63.967136,532.390991 88.030609,549.190918 111.994469,565.921326 
	C93.322243,575.610718 73.469940,584.436951 52.234451,590.916321 
z"/>
<path fill="#000000" opacity="1.000000" stroke="none" 
	d="
M374.112976,441.612610 
	C379.453003,444.592651 382.011017,448.735565 381.941132,454.773193 
	C371.881683,454.773193 362.113770,454.773193 352.372864,454.773193 
	C351.111328,446.385254 363.870453,436.009247 374.112976,441.612610 
z"/>
<path fill="#000000" opacity="1.000000" stroke="none" 
	d="
M732.216919,476.329529 
	C738.814331,471.667786 745.879517,470.597382 754.605408,471.232178 
	C753.829468,475.400909 754.350037,480.338043 752.128357,482.847015 
	C748.137024,487.354614 742.211121,489.445648 735.760254,487.991882 
	C729.524292,486.586517 727.951355,481.874634 732.216919,476.329529 
z"/>
<path fill="#000000" opacity="1.000000" stroke="none" 
	d="
M998.999023,474.264679 
	C1000.210938,479.973083 997.830566,483.592102 993.353821,485.790436 
	C988.708374,488.071625 983.554993,489.804199 978.623901,487.545959 
	C976.547119,486.594879 974.668091,483.372314 974.372009,480.975647 
	C974.149658,479.176483 976.166443,476.003662 977.942810,475.267120 
	C982.647827,473.316437 987.732727,472.223480 992.731445,471.070404 
	C994.581848,470.643585 996.613159,471.001434 998.786316,471.001434 
	C998.827637,471.550903 998.913269,472.688171 998.999023,474.264679 
z"/>
<path fill="#000000" opacity="1.000000" stroke="none" 
	d="
M212.525208,411.028137 
	C217.927979,412.635468 220.670853,416.738251 220.585602,421.276642 
	C220.509888,425.306915 218.084106,429.020050 212.961670,430.156921 
	C207.412872,431.388397 201.398102,428.481262 200.063507,423.013397 
	C198.914352,418.305267 203.515350,411.836761 208.650650,411.044189 
	C209.782074,410.869568 210.962372,411.011719 212.525208,411.028137 
z"/>
<path fill="#000000" opacity="1.000000" stroke="none" 
	d="
M679.936829,541.862427 
	C680.628967,539.559570 681.275513,537.664185 681.922058,535.768738 
	C682.486267,535.991638 683.050476,536.214539 683.614685,536.437378 
	C682.380371,541.322998 681.146118,546.208557 679.911804,551.094177 
	C679.172363,550.908875 678.432922,550.723633 677.693481,550.538391 
	C678.426025,547.782227 679.158630,545.026001 679.936829,541.862427 
z"/>
<path fill="#000000" opacity="1.000000" stroke="none" 
	d="
M672.153198,573.190186 
	C673.550293,567.136658 676.786194,570.332947 679.482422,570.791687 
	C679.580872,571.446167 679.679260,572.100708 679.777710,572.755249 
	C677.266479,573.027649 674.755310,573.300110 672.153198,573.190186 
z"/>
<path fill="#000000" opacity="1.000000" stroke="none" 
	d="
M825.335938,553.277222 
	C824.537109,555.721924 823.966614,557.816650 823.396179,559.911377 
	C822.853394,559.779663 822.310608,559.647888 821.767822,559.516174 
	C823.433350,551.645325 825.098816,543.774536 826.764343,535.903687 
	C827.456360,536.035889 828.148376,536.168091 828.840454,536.300293 
	C827.748413,541.842651 826.656372,547.384949 825.335938,553.277222 
z"/>
<path fill="#000000" opacity="1.000000" stroke="none" 
	d="
M704.084961,552.071045 
	C703.354980,554.743713 702.625061,557.416321 701.895081,560.088989 
	C701.338928,559.944946 700.782715,559.800903 700.226562,559.656860 
	C698.833374,556.563965 700.726501,554.151367 703.245361,551.735107 
	C703.824951,551.820374 703.954956,551.945740 704.084961,552.071045 
z"/>
<path fill="#000000" opacity="1.000000" stroke="none" 
	d="
M703.501099,551.505737 
	C703.785034,551.041992 704.262756,550.767395 704.740540,550.492798 
	C704.697510,550.938538 704.654419,551.384338 704.348145,551.950562 
	C703.954956,551.945740 703.824951,551.820374 703.501099,551.505737 
z"/>
<path fill="#000000" opacity="1.000000" stroke="none" 
	d="
M775.336121,555.233276 
	C776.371704,553.359070 777.175232,551.772705 777.978760,550.186340 
	C778.499695,550.403259 779.020569,550.620117 779.541443,550.836975 
	C778.500732,553.879395 777.460083,556.921753 776.419434,559.964111 
	C775.780945,559.795410 775.142456,559.626648 774.503967,559.457947 
	C774.703979,558.145630 774.904053,556.833374 775.336121,555.233276 
z"/>
<path fill="#000000" opacity="1.000000" stroke="none" 
	d="
M964.987305,538.009338 
	C964.244812,539.914978 963.524597,541.419189 962.705994,542.867859 
	C962.676697,542.919678 961.182617,542.362427 961.203491,542.190369 
	C961.432861,540.306396 961.781372,538.432068 962.199951,536.578308 
	C962.380737,535.777588 962.799561,535.030640 963.110291,534.259216 
	C963.573853,534.534363 964.037476,534.809448 964.501099,535.084534 
	C964.665161,535.922607 964.829224,536.760681 964.987305,538.009338 
z"/>
</svg>