<?xml version="1.0" standalone="no"?>
<!DOCTYPE svg PUBLIC "-//W3C//DTD SVG 20010904//EN"
 "http://www.w3.org/TR/2001/REC-SVG-20010904/DTD/svg10.dtd">
<svg version="1.0" xmlns="http://www.w3.org/2000/svg"
 width="231.000000pt" height="140.000000pt" viewBox="0 0 231.000000 140.000000"
 preserveAspectRatio="xMidYMid meet">

<g transform="translate(0.000000,140.000000) scale(0.100000,-0.100000)"
fill="#000000" stroke="none">
<path d="M1097 1348 c-183 -314 -686 -1192 -685 -1193 2 -1 163 189 357 422
227 271 357 419 362 411 38 -70 359 -801 354 -806 -6 -6 -390 -74 -840 -149
l-170 -28 719 -3 c396 -1 721 0 724 2 2 3 -22 51 -55 108 -33 57 -207 359
-388 673 -180 314 -334 578 -341 588 -11 17 -14 15 -37 -25z"/>
<path d="M817 583 c-4 -3 -7 -17 -7 -29 0 -21 5 -23 53 -26 l52 -3 3 -147 3
-148 34 0 34 0 3 148 3 147 53 3 c50 3 52 4 52 33 l0 29 -138 0 c-76 0 -142
-3 -145 -7z"/>
<path d="M1150 509 c-47 -19 -70 -49 -70 -94 0 -49 24 -76 103 -115 56 -27 71
-55 41 -77 -24 -18 -78 -16 -115 3 l-30 15 3 -38 c3 -36 5 -39 45 -47 102 -21
193 25 193 97 0 46 -25 75 -96 112 -60 31 -75 54 -54 80 14 17 82 20 111 5 17
-10 19 -7 19 23 0 27 -5 36 -22 41 -34 9 -100 6 -128 -5z"/>
</g>
</svg>
